<svg width="151" height="69" viewBox="0 0 151 69" fill="none" xmlns="http://www.w3.org/2000/svg">
<g clip-path="url(#clip0_97_1737)">
<path d="M53.238 46.6839C52.1836 42.9894 50.5079 39.6833 48.9367 38.0512C48.7801 38.3241 48.707 38.5603 48.6443 38.7649C48.4042 39.5416 48.2215 40.1136 46.8173 40.7539C46.123 41.0687 45.815 40.8955 45.862 41.0058C45.909 41.1107 46.076 41.3101 46.2848 41.562C46.5458 41.8769 46.8643 42.2547 47.1931 42.7585C48.2424 44.3539 49.0828 46.3953 49.5631 48.5102C50.0277 50.5306 50.1634 52.6297 49.8606 54.4822C48.8062 60.9109 42.8657 60.0607 38.084 59.3732C35.8759 59.0584 33.9601 58.7802 33.4538 59.3208C33.3441 59.4362 33.2293 59.5569 33.1249 59.6671C32.2009 60.6275 32.1801 60.6537 33.3546 62.7004C33.4799 62.9208 34.2994 63.2567 35.5523 63.5978C37.3323 64.0858 39.8171 64.4374 42.4011 64.3482C44.9537 64.259 47.6003 63.7447 49.7406 62.501C51.6563 61.3884 53.1754 59.6776 53.8592 57.1377C54.6788 54.1044 54.256 50.2367 53.2433 46.6839M49.3699 36.099C51.3849 37.6419 53.6243 41.688 54.9137 46.2011C56.0047 50.0216 56.4432 54.2198 55.5349 57.589C54.7153 60.6327 52.8935 62.6846 50.6071 64.0176C48.1902 65.424 45.2565 66.0013 42.448 66.0957C39.6709 66.1902 37.0087 65.8124 35.0929 65.2876C33.3963 64.8258 32.1905 64.1803 31.8355 63.5715C30.0033 60.3808 30.0503 60.3284 31.8564 58.4444C31.9504 58.3447 32.0548 58.2397 32.1801 58.1085C33.3076 56.9172 35.6306 57.2479 38.3189 57.6362C42.3436 58.2135 47.355 58.9324 48.1275 54.1989C48.3938 52.5825 48.2633 50.7143 47.8509 48.8985C47.4124 46.9883 46.6659 45.1463 45.7263 43.7241C45.4548 43.3148 45.1729 42.9737 44.938 42.6903C44.6457 42.3335 44.4108 42.0553 44.2646 41.73C43.7948 40.6856 44.1498 40.0401 46.0917 39.1585C46.786 38.8436 46.8643 38.5917 46.9739 38.2454C47.1409 37.7101 47.3393 37.0646 48.1693 36.1725C48.4877 35.8314 49.015 35.7999 49.3699 36.099Z" fill="white"/>
<path d="M8.88785 46.2005C10.1772 41.6821 12.4167 37.636 14.4368 36.0931C14.7918 35.794 15.3138 35.8255 15.6322 36.1666C16.457 37.0588 16.6606 37.7042 16.8277 38.2395C16.9373 38.5859 17.0156 38.8378 17.7099 39.1526C19.6517 40.0343 20.0067 40.6798 19.5369 41.7241C19.3907 42.0495 19.1558 42.3328 18.8635 42.6845C18.6286 42.9678 18.3467 43.3089 18.0753 43.7183C17.1356 45.1404 16.3892 46.9824 15.9507 48.8927C15.5383 50.7084 15.4078 52.5714 15.674 54.193C16.4518 58.9266 21.4579 58.2076 25.4826 57.6303C28.171 57.2472 30.4939 56.9114 31.6215 58.1027C31.7468 58.2338 31.8512 58.3441 31.9451 58.4385C33.7513 60.3277 33.8035 60.375 31.966 63.5657C31.6163 64.1744 30.4052 64.8199 28.7087 65.2817C26.7981 65.8013 24.1306 66.1843 21.3535 66.0899C18.5451 65.9954 15.6114 65.4129 13.1944 64.0117C10.9028 62.6788 9.08621 60.6321 8.26665 57.5831C7.35835 54.214 7.79684 50.0157 8.88785 46.1953M14.8701 38.0506C13.2989 39.6827 11.6232 42.9888 10.5687 46.6833C9.55602 50.2361 9.13319 54.1038 9.95275 57.137C10.6366 59.677 12.1556 61.3878 14.0714 62.5004C16.2117 63.7441 18.8583 64.2584 21.4109 64.3476C23.9949 64.4368 26.4744 64.08 28.2597 63.5972C29.5126 63.256 30.3321 62.9202 30.4574 62.6998C31.6319 60.6531 31.611 60.6269 30.6871 59.6665C30.5775 59.5563 30.4678 59.4356 30.3582 59.3202C29.8519 58.7849 27.9361 59.0578 25.728 59.3726C20.9463 60.0601 15.0058 60.9103 13.9514 54.4816C13.6486 52.6344 13.7895 50.53 14.2489 48.5096C14.7292 46.3999 15.5696 44.3585 16.6188 42.7579C16.9477 42.2594 17.2609 41.8815 17.5272 41.5614C17.736 41.3095 17.903 41.1101 17.95 41.0051C17.997 40.8949 17.689 41.0681 16.9947 40.7532C15.5853 40.113 15.4078 39.541 15.1677 38.7643C15.105 38.5544 15.0319 38.3235 14.8753 38.0506H14.8701Z" fill="white"/>
<path d="M52.9143 13.7119C51.4161 16.5352 48.6808 18.7341 43.9357 18.7341C42.7455 18.7341 41.8633 18.5347 41.1534 17.9784C40.4487 17.4326 39.9945 16.5929 39.6604 15.3177C39.5456 14.8769 39.342 14.4046 39.1593 13.9743C38.8931 13.355 38.6634 12.8092 38.6425 12.253C38.6112 11.1404 39.2167 10.453 41.263 10.3952C43.5599 10.327 45.3608 9.66053 46.7859 8.506C48.2319 7.33573 49.3229 5.65117 50.179 3.58352C50.4139 3.01675 50.6644 2.49196 50.9829 2.10362C51.4422 1.54735 52.0008 1.25347 52.7473 1.4109C53.405 1.54735 54.0888 2.90129 54.3185 4.80102C54.4647 6.00802 54.5012 7.50366 54.3081 9.04653C54.1149 10.6104 53.6817 12.2372 52.9039 13.7119M43.9357 16.976C47.8978 16.976 50.1581 15.1865 51.3796 12.888C52.0426 11.6337 52.4132 10.2116 52.5855 8.83137C52.7577 7.43544 52.7316 6.09724 52.5959 5.01093C52.4549 3.86165 52.4236 3.12695 52.4027 3.1217C52.3923 3.1217 52.3819 3.15844 52.3349 3.21617C52.1522 3.44182 51.9747 3.81967 51.7972 4.24999C50.8315 6.58004 49.5787 8.49551 47.8821 9.8652C46.1647 11.2506 44.0244 12.0588 41.3152 12.1375C40.6 12.1585 40.386 12.1795 40.386 12.2005C40.3912 12.4052 40.5687 12.8145 40.7619 13.2763C40.9655 13.7486 41.1847 14.2681 41.3413 14.8716C41.571 15.7533 41.8372 16.2938 42.2131 16.5877C42.5785 16.8711 43.1318 16.976 43.9305 16.976H43.9357Z" fill="white"/>
<path d="M12.469 12.888C13.6905 15.1865 15.9509 16.976 19.9129 16.976C20.7116 16.976 21.2649 16.8763 21.6304 16.5929C22.0062 16.2991 22.2724 15.7585 22.5021 14.8769C22.6587 14.2734 22.8832 13.7539 23.0815 13.2815C23.2799 12.8197 23.4522 12.4104 23.4574 12.2057C23.4574 12.1847 23.2434 12.1638 22.5282 12.1428C19.819 12.064 17.6787 11.2559 15.9613 9.87044C14.2648 8.50075 13.0119 6.58529 12.0462 4.25524C11.8687 3.82492 11.6912 3.44707 11.5085 3.22141C11.4616 3.16369 11.4511 3.1217 11.4407 3.12695C11.4198 3.12695 11.3885 3.8669 11.2475 5.01618C11.1118 6.10249 11.0857 7.44069 11.258 8.83662C11.4302 10.2168 11.8009 11.6337 12.4638 12.8932M19.9129 18.7341C15.1678 18.7341 12.4325 16.5352 10.9343 13.7119C10.1513 12.2372 9.72325 10.6104 9.53011 9.04653C9.33696 7.49841 9.37351 6.00802 9.51967 4.80102C9.75457 2.90129 10.4384 1.54735 11.0909 1.4109C11.8374 1.25347 12.396 1.54735 12.8553 2.10362C13.179 2.49196 13.4243 3.01675 13.6592 3.58352C14.5153 5.65117 15.6063 7.33573 17.0523 8.506C18.4774 9.65528 20.2783 10.327 22.5752 10.3952C24.6267 10.453 25.227 11.1457 25.1957 12.253C25.18 12.8092 24.9451 13.355 24.6789 13.9743C24.4962 14.4046 24.2926 14.8716 24.1778 15.3177C23.8489 16.5929 23.3895 17.4326 22.6848 17.9784C21.9749 18.5294 21.0927 18.7288 19.9025 18.7288L19.9129 18.7341Z" fill="white"/>
<path d="M61.5588 23.1838H46.9529C46.5718 23.4987 46.3473 23.8293 46.2534 24.1599C46.1072 24.669 46.2586 25.2462 46.6083 25.8287C47.0207 26.5214 47.6941 27.2037 48.498 27.8177C50.3042 29.1926 52.7159 30.1897 54.4803 30.1582C57.2574 30.1162 59.335 28.6783 60.5565 27.041C61.0681 26.3588 61.4283 25.6451 61.6266 24.9943C61.8041 24.4066 61.8511 23.8818 61.7519 23.5092C61.7102 23.3622 61.6475 23.2468 61.5536 23.1786M46.6605 21.431H61.7467C61.872 21.431 61.9868 21.4573 62.0912 21.5045C62.8012 21.7669 63.2449 22.3232 63.4433 23.0631C63.626 23.7506 63.5738 24.606 63.2971 25.5086C63.0413 26.3483 62.5871 27.2509 61.9555 28.0958C60.4521 30.1005 57.9151 31.8585 54.5116 31.911C52.3766 31.9425 49.5316 30.7984 47.454 29.2136C46.4726 28.4684 45.6478 27.613 45.1206 26.7261C44.5307 25.7343 44.2906 24.6952 44.5829 23.6771C44.797 22.9162 45.3033 22.2077 46.1646 21.5885C46.316 21.4783 46.4935 21.4258 46.671 21.4258L46.6605 21.431Z" fill="white"/>
<path d="M2.23748 21.4315H17.2767C17.4646 21.421 17.6577 21.4735 17.8248 21.5942C18.6861 22.2134 19.1872 22.9219 19.4065 23.6828C19.6936 24.6957 19.4587 25.74 18.8688 26.7318C18.3416 27.6187 17.5116 28.4689 16.5354 29.2193C14.4526 30.8042 11.6128 31.9534 9.4778 31.9167C6.07428 31.8642 3.5373 30.1062 2.0339 28.1015C1.39704 27.2514 0.948114 26.354 0.692328 25.5143C0.415662 24.6117 0.36346 23.7563 0.546164 23.0688C0.749749 22.3026 1.21956 21.7411 1.96604 21.484C2.05478 21.4577 2.14874 21.4367 2.24793 21.4367M17.0261 23.1843H2.43063C2.33667 23.2525 2.26881 23.3679 2.22704 23.5149C2.12786 23.8927 2.16962 24.4123 2.35233 25C2.55069 25.6508 2.91088 26.3645 3.42245 27.0467C4.64918 28.684 6.72157 30.1167 9.49868 30.1639C11.2631 30.1902 13.6748 29.1983 15.4809 27.8234C16.2901 27.2094 16.9582 26.5219 17.3706 25.8344C17.7204 25.2467 17.8718 24.6747 17.7256 24.1656C17.6316 23.835 17.4072 23.5044 17.0261 23.1895V23.1843Z" fill="white"/>
<path fill-rule="evenodd" clip-rule="evenodd" d="M47.5377 30.6308C45.5749 32.4991 42.9283 33.6431 40.0103 33.6431C33.9601 33.6431 29.0532 28.7101 29.0532 22.6278C29.0532 17.3328 32.77 12.9141 37.7186 11.854C41.9208 13.7275 45.4705 17.5217 46.2013 21.3316C46.7442 24.1602 47.4646 27.6763 47.5325 30.6308" fill="white"/>
<path d="M40.4067 14.441C37.9271 12.5832 34.8734 11.3972 31.9814 11.5232C31.9814 11.5232 31.9292 11.5232 31.9083 11.5232C29.0164 11.3972 25.9626 12.5832 23.483 14.441C20.9461 16.3407 19.0303 18.9226 18.5396 21.4941L18.4039 22.1973C17.861 25.0102 17.2137 28.374 17.2137 31.0872C17.2137 31.8534 17.1719 32.6405 17.1249 33.4277C17.0832 34.1467 17.0466 34.8604 17.0466 35.6318C17.0466 35.8155 17.1093 36.1356 17.1719 36.4557L31.9292 36.3088H31.9396H31.9553L46.723 36.4557C46.7857 36.1461 46.8431 35.8312 46.8431 35.6318C46.8431 34.8604 46.8013 34.1467 46.7648 33.4277C46.723 32.6405 46.6761 31.8534 46.6761 31.0872C46.6761 28.3583 46.0288 24.9997 45.4911 22.1921L45.3554 21.4888C44.8647 18.9174 42.9541 16.3355 40.4119 14.4357M31.9396 9.77563C35.2388 9.64444 38.6736 10.9669 41.4403 13.0346C44.3113 15.1809 46.4829 18.1565 47.0571 21.1635L47.1928 21.8667C47.7514 24.753 48.4144 28.2061 48.4144 31.0872C48.4144 31.8796 48.4561 32.609 48.4979 33.3333C48.5396 34.1152 48.5866 34.8866 48.5866 35.6318C48.5866 35.8837 48.5396 36.1881 48.4822 36.4977C48.6127 36.5344 48.7328 36.6027 48.8372 36.6971C49.1869 37.0277 49.2078 37.5788 48.8842 37.9356C48.0072 38.8855 47.3808 38.9537 46.8901 38.4971C46.7961 38.4079 46.723 38.3082 46.6708 38.198L31.9449 38.0511L17.2189 38.198C17.1928 38.2505 17.1615 38.303 17.1249 38.3554C17.0884 38.4079 17.0466 38.4552 17.0049 38.4971C16.5142 38.9537 15.8825 38.8855 15.0108 37.9356C14.8698 37.7782 14.7811 37.5735 14.7759 37.3479C14.7759 36.9438 15.0421 36.6027 15.4075 36.4977C15.3501 36.1933 15.3031 35.8942 15.3031 35.6266C15.3031 34.8814 15.3449 34.1099 15.3919 33.328C15.4336 32.6038 15.4702 31.8743 15.4702 31.0819C15.4702 28.1799 16.1331 24.7425 16.6864 21.8614L16.8222 21.1582C17.3964 18.1512 19.568 15.1757 22.439 13.0293C25.2057 10.9564 28.6405 9.63394 31.9396 9.77039V9.77563Z" fill="white"/>
<path fill-rule="evenodd" clip-rule="evenodd" d="M49.4589 39.6829C51.3851 34.8969 48.5663 32.9132 44.5363 32.0998C39.264 31.0345 24.3919 31.0345 19.1195 32.0998C15.0896 32.9132 12.276 34.9021 14.197 39.6829C20.6386 55.6994 43.012 55.6994 49.4537 39.6829" fill="white"/>
<path fill-rule="evenodd" clip-rule="evenodd" d="M34.1848 31.3178C28.427 31.2234 22.1681 31.4805 19.1195 32.0998C15.0896 32.9132 12.276 34.9021 14.197 39.6829C17.7675 48.5675 26.245 52.5192 34.1848 51.5483C27.8111 50.7664 21.7818 46.8147 18.9107 39.6829C16.9845 34.8969 19.8034 32.9132 23.8333 32.0998C26.0571 31.6484 29.9878 31.3913 34.1848 31.3178Z" fill="black"/>
<path d="M49.9021 33.8473C51.0715 35.2904 51.3638 37.2741 50.2623 40.0082C48.049 45.5185 44.0243 49.2182 39.3784 51.1022C36.9667 52.0835 34.3932 52.5716 31.8249 52.5716C29.2566 52.5716 26.6778 52.0835 24.2713 51.1022C19.6306 49.213 15.6059 45.5185 13.3874 40.0082C12.2859 37.2741 12.5835 35.2904 13.7476 33.8473C14.8595 32.4723 16.7491 31.6851 18.9468 31.2391C21.6508 30.6933 26.7509 30.4204 31.8249 30.4204C36.8988 30.4204 41.9989 30.6933 44.7029 31.2391C46.9006 31.6851 48.7903 32.4723 49.9021 33.8473ZM48.6493 39.3575C49.4741 37.3056 49.3227 35.9044 48.5554 34.9546C47.7358 33.9365 46.1959 33.3277 44.3688 32.9551C41.8005 32.4356 36.8257 32.1784 31.8301 32.1784C26.8344 32.1784 21.8596 32.4356 19.2913 32.9551C17.4591 33.3277 15.9244 33.9365 15.1048 34.9546C14.3374 35.9044 14.1861 37.3056 15.0108 39.3575C17.0362 44.3902 20.7008 47.7593 24.9239 49.4806C27.1215 50.3728 29.4758 50.8188 31.8301 50.8188C34.1844 50.8188 36.5386 50.3728 38.7363 49.4806C42.9594 47.7646 46.6291 44.3902 48.6493 39.3575Z" fill="white"/>
<path d="M20.2625 42.2913C20.0955 41.84 20.3252 41.3362 20.7741 41.1682C21.223 41.0003 21.7242 41.2312 21.8912 41.6825C22.4185 43.0994 23.8801 44.2592 25.7907 45.0674C27.482 45.7811 29.4969 46.2062 31.538 46.2849C33.5791 46.3636 35.6358 46.1012 37.4054 45.44C39.4047 44.6895 41.0334 43.4248 41.806 41.5671C41.9939 41.121 42.5055 40.9111 42.9492 41.0948C43.3929 41.2837 43.6017 41.798 43.419 42.244C42.4376 44.5898 40.4435 46.1642 38.011 47.0773C36.0221 47.8225 33.7305 48.1216 31.4754 48.0324C29.2203 47.9432 26.9861 47.4762 25.112 46.6837C22.7786 45.6971 20.9673 44.2015 20.2573 42.2913" fill="black"/>
<path fill-rule="evenodd" clip-rule="evenodd" d="M31.8929 1.60449L45.6218 10.5101L59.356 19.421H31.8929H4.43506L18.164 10.5101L31.8929 1.60449Z" fill="black"/>
<path d="M45.1522 11.2501L31.8931 2.64883L18.634 11.2501L7.39505 18.5393H56.3964L45.1574 11.2501H45.1522ZM32.389 0.880301L46.097 9.77541L59.826 18.681C60.2331 18.9434 60.348 19.4839 60.087 19.8933C59.9199 20.1557 59.638 20.2974 59.3509 20.2974H31.8879H4.43524C3.95499 20.2974 3.56348 19.9038 3.56348 19.421C3.56348 19.0904 3.74618 18.8017 4.01241 18.6548L17.6944 9.78066L31.4233 0.864558C31.726 0.670387 32.1071 0.686131 32.389 0.880301Z" fill="white"/>
<path d="M24.9656 18.8173C24.7673 19.2581 24.2505 19.4575 23.812 19.2581C23.3735 19.0587 23.1751 18.5392 23.3735 18.0983L28.5571 6.58455L15.5276 19.51C15.1831 19.8511 14.635 19.8459 14.2957 19.4995C13.9564 19.1532 13.9616 18.6021 14.3061 18.261L30.6503 2.05565C30.8957 1.78277 31.3028 1.6883 31.6526 1.84574C32.0911 2.04516 32.2895 2.5647 32.0911 3.00552L24.9708 18.8173H24.9656Z" fill="white"/>
<path d="M32.7386 18.728C32.7386 19.2108 32.3471 19.6044 31.8669 19.6044C31.3866 19.6044 30.9951 19.2108 30.9951 18.728V2.63811C30.9951 2.15531 31.3866 1.76172 31.8669 1.76172C32.3471 1.76172 32.7386 2.15531 32.7386 2.63811V18.728Z" fill="white"/>
<path d="M40.3807 18.0987C40.5791 18.5395 40.3807 19.0591 39.9422 19.2585C39.5037 19.4579 38.987 19.2585 38.7886 18.8177L31.6683 3.00589C31.47 2.56507 31.6683 2.04554 32.1068 1.84612C32.4618 1.68344 32.8638 1.78314 33.1143 2.05603L49.4481 18.2614C49.7926 18.6025 49.7978 19.1535 49.4585 19.4999C49.1192 19.8463 48.5711 19.8515 48.2266 19.5104L35.1971 6.58493L40.3807 18.0987Z" fill="white"/>
<path fill-rule="evenodd" clip-rule="evenodd" d="M31.11 49.0719C31.7938 50.4206 31.726 63.3356 30.5828 64.4061C28.8236 66.0592 23.5147 65.2668 22.4968 62.7793C20.3722 57.5839 29.1159 45.1413 31.11 49.0719Z" fill="black"/>
<path d="M30.635 57.8716C30.7603 54.1457 30.6506 50.0996 30.3322 49.4698C30.2278 49.2704 30.1025 49.1864 29.9564 49.1969C29.617 49.2232 29.1629 49.4751 28.6461 49.8949C28.0458 50.3777 27.4089 51.0652 26.7825 51.8733C24.3813 54.9906 22.2306 59.8396 23.3007 62.4478C23.379 62.6419 23.5043 62.8204 23.6609 62.9935C24.256 63.6338 25.2843 64.0746 26.3754 64.274C27.4872 64.4787 28.6252 64.4367 29.4291 64.1061C29.6536 64.0116 29.8415 63.9014 29.9877 63.765C30.3113 63.4606 30.5306 60.8157 30.6297 57.8664M31.8878 48.6774C32.3211 49.5328 32.509 53.9672 32.3733 57.9294C32.2584 61.2722 31.8826 64.3947 31.1779 65.0559C30.8803 65.3393 30.5097 65.5597 30.0973 65.7329C28.9854 66.1947 27.482 66.2682 26.0674 66.0058C24.637 65.7382 23.2485 65.1242 22.3924 64.1953C22.0948 63.8752 21.8599 63.5183 21.6981 63.1195C20.3774 59.8868 22.7213 54.3031 25.4096 50.808C26.1196 49.8896 26.8556 49.1025 27.5603 48.5357C28.3486 47.9007 29.1264 47.5071 29.8363 47.4546C30.7133 47.3864 31.4284 47.759 31.8982 48.6826L31.8878 48.6774Z" fill="white"/>
<path fill-rule="evenodd" clip-rule="evenodd" d="M32.6186 49.0719C31.9348 50.4206 32.0026 63.3356 33.1458 64.4061C34.9102 66.0592 40.2139 65.2668 41.2318 62.7793C43.3564 57.5839 34.6127 45.1413 32.6186 49.0719Z" fill="black"/>
<path d="M31.3554 57.9248C31.2197 53.9627 31.4077 49.5283 31.8409 48.6729C32.3107 47.7493 33.0259 47.3767 33.9029 47.4449C34.6128 47.4974 35.3906 47.891 36.1736 48.5259C36.8783 49.098 37.6144 49.8799 38.3243 50.7983C41.0179 54.2933 43.3617 59.8823 42.0358 63.1097C41.874 63.5086 41.6339 63.8654 41.3415 64.1855C40.4802 65.1144 39.0969 65.7284 37.6666 65.996C36.2519 66.2584 34.7485 66.185 33.6366 65.7232C33.219 65.55 32.8536 65.3243 32.5561 65.0462C31.8514 64.385 31.4755 61.2677 31.3607 57.9196M33.3965 49.4706C33.0781 50.095 32.9685 54.1411 33.099 57.8724C33.1982 60.8217 33.4174 63.4613 33.741 63.771C33.8872 63.9074 34.0751 64.0229 34.2996 64.1121C35.1035 64.4427 36.2415 64.4899 37.3534 64.28C38.4496 64.0753 39.478 63.6345 40.0678 62.9995C40.2297 62.8263 40.3497 62.6427 40.428 62.4537C41.4982 59.8403 39.3475 54.9965 36.9462 51.8793C36.3198 51.0711 35.6829 50.3837 35.0826 49.9009C34.5658 49.481 34.1117 49.2292 33.7724 49.2029C33.6262 49.1924 33.5009 49.2764 33.3965 49.4758V49.4706Z" fill="white"/>
<path d="M16.5194 25.3037C16.9996 25.3037 17.3912 25.6973 17.3912 26.1801C17.3912 26.6629 16.9996 27.0565 16.5194 27.0565H9.9577C9.47745 27.0565 9.08594 26.6629 9.08594 26.1801C9.08594 25.6973 9.47745 25.3037 9.9577 25.3037H16.5194Z" fill="white"/>
<path d="M54.2037 25.3037C54.684 25.3037 55.0755 25.6973 55.0755 26.1801C55.0755 26.6629 54.684 27.0565 54.2037 27.0565H47.642C47.1618 27.0565 46.7703 26.6629 46.7703 26.1801C46.7703 25.6973 47.1618 25.3037 47.642 25.3037H54.2037Z" fill="white"/>
<path d="M20.7219 29.2811C20.2416 29.2811 19.8501 28.8875 19.8501 28.4047C19.8501 27.9219 20.2416 27.5283 20.7219 27.5283H27.6594C28.1397 27.5283 28.5312 27.9219 28.5312 28.4047C28.5312 28.8875 28.1397 29.2811 27.6594 29.2811H20.7219Z" fill="white"/>
<path d="M36.2985 29.2811C35.8183 29.2811 35.4268 28.8875 35.4268 28.4047C35.4268 27.9219 35.8183 27.5283 36.2985 27.5283H43.2361C43.7163 27.5283 44.1078 27.9219 44.1078 28.4047C44.1078 28.8875 43.7163 29.2811 43.2361 29.2811H36.2985Z" fill="black"/>
<path fill-rule="evenodd" clip-rule="evenodd" d="M23.3164 36.3924C25.2165 37.4944 26.2815 39.2262 25.6916 40.2496C25.1017 41.2781 23.0815 41.2152 21.1814 40.1131C19.2813 39.0111 18.2164 37.2793 18.8062 36.2559C19.3961 35.2274 21.4163 35.2903 23.3164 36.3924Z" fill="black"/>
<path fill-rule="evenodd" clip-rule="evenodd" d="M40.3547 36.3035C38.4546 37.4056 37.3897 39.1374 37.9796 40.1607C38.5694 41.1893 40.5896 41.1263 42.4898 40.0243C44.3899 38.9222 45.4548 37.1904 44.8649 36.1671C44.275 35.1385 42.2549 35.2015 40.3547 36.3035Z" fill="black"/>
</g>
<path d="M133.135 47.0237C132.074 47.0237 131.441 47.6596 131.227 48.5212L128.891 57.2703L123.157 37.6386C123.157 37.6386 122.728 36.3565 121.249 36.3565C119.974 36.3565 119.127 37.2078 119.127 38.4899C119.127 38.7874 119.341 39.5567 119.341 39.5567L126.554 64.5322C126.769 65.3835 127.615 66.2349 128.676 66.2349C129.738 66.2349 130.544 65.3835 130.799 64.5322L133.135 55.9985L135.471 64.5322C135.727 65.3835 136.533 66.2349 137.594 66.2349C138.655 66.2349 139.502 65.3835 139.716 64.5322L146.939 39.5567C146.939 39.5567 147.154 38.7874 147.154 38.4899C147.154 37.2078 146.307 36.3565 145.031 36.3565C143.542 36.3565 143.124 37.6386 143.124 37.6386L137.39 57.2703L135.053 48.5212C134.839 47.6699 134.206 47.0237 133.145 47.0237M118.443 51.2906C118.443 39.7618 114.617 35.9257 108.893 35.9257C103.17 35.9257 99.3437 39.7721 99.3437 51.2906C99.3437 62.8091 103.17 66.6657 108.893 66.6657C114.617 66.6657 118.443 62.8193 118.443 51.2906ZM114.199 51.2906C114.199 60.2551 112.077 62.3885 108.893 62.3885C105.71 62.3885 103.588 60.2551 103.588 51.2906C103.588 42.326 105.71 40.1926 108.893 40.1926C112.077 40.1926 114.199 42.326 114.199 51.2906ZM88.8961 66.6657C93.3547 66.6657 95.9054 64.1014 96.7522 61.5372C96.7522 61.5372 96.9665 60.9013 96.9665 60.2551C96.9665 58.973 96.1197 58.1217 95.0586 58.1217C93.569 58.1217 93.1507 59.4038 93.1507 59.4038C92.5181 61.1064 91.2428 62.3885 88.9064 62.3885C85.7231 62.3885 83.6009 60.2551 83.6009 51.2906C83.6009 42.326 85.7231 40.1926 88.9064 40.1926C91.0285 40.1926 92.3039 41.4747 92.7324 42.7568C92.7324 42.7568 93.1609 44.0389 94.6403 44.0389C95.7014 44.0389 96.5482 43.1876 96.5482 41.9055C96.5482 41.2696 96.3339 40.6234 96.3339 40.6234C95.7013 38.4899 93.1507 35.9257 88.9064 35.9257C83.1724 35.9257 79.3566 39.7721 79.3566 51.2906C79.3566 62.8091 83.1826 66.6657 88.9064 66.6657H88.8961ZM132.737 9.55522C132.737 10.6219 133.37 11.2579 133.798 11.6887L139.746 17.453V29.1869C139.746 30.2536 140.807 31.3204 141.869 31.3204C142.93 31.3204 143.991 30.2536 143.991 29.1869V17.453L149.939 11.6887C150.367 11.2579 151 10.6219 151 9.55522V3.57544C151 2.50873 149.939 1.44201 148.878 1.44201C147.817 1.44201 146.756 2.50873 146.756 3.57544V8.69364L141.869 13.3913L136.981 8.69364V3.57544C136.981 2.50873 135.92 1.44201 134.859 1.44201C133.798 1.44201 132.737 2.50873 132.737 3.57544V9.55522ZM125.259 27.0638V3.58571C125.259 2.51899 124.198 1.45227 123.136 1.45227C122.075 1.45227 121.014 2.51899 121.014 3.58571V29.1972C121.014 30.2639 122.075 31.3306 123.136 31.3306H132.054C133.115 31.3306 134.176 30.2639 134.176 29.1972C134.176 28.1305 133.115 27.0638 132.054 27.0638H125.259ZM116.515 16.3863C116.515 4.85756 112.689 1.02148 106.965 1.02148C101.241 1.02148 97.4154 4.86782 97.4154 16.3863C97.4154 27.9048 101.241 31.7614 106.965 31.7614C112.689 31.7614 116.515 27.9151 116.515 16.3863ZM112.271 16.3863C112.271 25.3509 110.148 27.4843 106.965 27.4843C103.782 27.4843 101.66 25.3509 101.66 16.3863C101.66 7.42179 103.782 5.28834 106.965 5.28834C110.148 5.28834 112.271 7.42179 112.271 16.3863ZM79.7443 12.5502V3.58571C79.7443 2.51899 78.6832 1.45227 77.6222 1.45227C76.5611 1.45227 75.5 2.51899 75.5 3.58571V29.1972C75.5 30.2639 76.5611 31.3306 77.6222 31.3306C78.6832 31.3306 79.7443 30.2639 79.7443 29.1972V16.8171H88.6615V29.1972C88.6615 30.2639 89.7226 31.3306 90.7836 31.3306C91.8447 31.3306 92.9058 30.2639 92.9058 29.1972V3.58571C92.9058 2.51899 91.8447 1.45227 90.7836 1.45227C89.7226 1.45227 88.6615 2.51899 88.6615 3.58571V12.5502H79.7443Z" fill="white"/>
<defs>
<clipPath id="clip0_97_1737">
<rect width="65.2973" height="67.3394" fill="white" transform="translate(0 0.726562)"/>
</clipPath>
</defs>
</svg>
