<svg width="74" height="33" viewBox="0 0 74 33" fill="none" xmlns="http://www.w3.org/2000/svg">
<path fill-rule="evenodd" clip-rule="evenodd" d="M23.9207 17.6639C25.6219 18.937 27.7298 24.3223 26.8063 27.7557C25.3175 33.2747 16.5223 31.5336 15.9774 30.5847C15.1844 29.2062 15.2637 29.2859 16.0874 28.4166C17.2079 27.2285 23.3169 30.5281 24.0153 26.2718C24.3018 24.5306 23.7237 22.2803 22.772 20.8324C22.1504 19.8886 21.5364 19.7831 22.7695 19.2225C23.6955 18.8007 23.1609 18.4844 23.9232 17.6614" fill="white"/>
<path d="M26.0902 22.5219C25.5735 20.7113 24.7523 19.0911 23.9823 18.2913C23.9055 18.425 23.8697 18.5408 23.839 18.6411C23.7213 19.0217 23.6318 19.302 22.9436 19.6158C22.6034 19.7701 22.4525 19.6852 22.4755 19.7392C22.4985 19.7906 22.5804 19.8884 22.6827 20.0118C22.8106 20.1661 22.9667 20.3513 23.1278 20.5982C23.642 21.38 24.0539 22.3804 24.2892 23.4169C24.5169 24.407 24.5834 25.4357 24.4351 26.3436C23.9183 29.494 21.0071 29.0774 18.6638 28.7405C17.5816 28.5862 16.6428 28.4499 16.3946 28.7148C16.3409 28.7714 16.2846 28.8305 16.2335 28.8845C15.7807 29.3552 15.7704 29.368 16.346 30.371C16.4074 30.479 16.8091 30.6436 17.423 30.8108C18.2954 31.05 19.5131 31.2223 20.7794 31.1786C22.0304 31.1348 23.3274 30.8828 24.3762 30.2733C25.3151 29.7281 26.0595 28.8897 26.3947 27.6449C26.7963 26.1584 26.5891 24.263 26.0928 22.5219M24.1946 17.3346C25.1821 18.0907 26.2795 20.0735 26.9114 22.2853C27.4461 24.1576 27.661 26.215 27.2158 27.8661C26.8142 29.3577 25.9214 30.3633 24.8009 31.0165C23.6164 31.7058 22.1787 31.9887 20.8024 32.035C19.4414 32.0813 18.1368 31.8961 17.1979 31.6389C16.3665 31.4126 15.7755 31.0963 15.6016 30.7979C14.7037 29.2343 14.7267 29.2086 15.6118 28.2853C15.6579 28.2364 15.709 28.185 15.7704 28.1207C16.323 27.5369 17.4614 27.6989 18.7789 27.8892C20.7512 28.1721 23.2071 28.5245 23.5857 26.2047C23.7162 25.4126 23.6523 24.497 23.4502 23.6072C23.2353 22.6711 22.8694 21.7684 22.409 21.0714C22.2759 20.8708 22.1378 20.7036 22.0227 20.5648C21.8794 20.3899 21.7643 20.2536 21.6927 20.0941C21.4624 19.5823 21.6364 19.266 22.588 18.8339C22.9283 18.6796 22.9667 18.5562 23.0204 18.3864C23.1022 18.1241 23.1995 17.8078 23.6062 17.3706C23.7623 17.2034 24.0206 17.188 24.1946 17.3346Z" fill="#1F1A17"/>
<path fill-rule="evenodd" clip-rule="evenodd" d="M7.34877 17.6639C5.64756 18.937 3.5396 24.3223 4.46311 27.7557C5.95199 33.2747 14.7471 31.5336 15.292 30.5847C16.085 29.2062 16.0057 29.2859 15.182 28.4166C14.0615 27.2285 7.9525 30.5281 7.25411 26.2718C6.96759 24.5306 7.54575 22.2803 8.4974 20.8324C9.11904 19.8886 9.73302 19.7831 8.49996 19.2225C7.57389 18.8007 8.10855 18.4844 7.34621 17.6614" fill="white"/>
<path d="M4.35573 22.2854C4.98761 20.0711 6.08508 18.0882 7.07511 17.3321C7.24906 17.1855 7.50489 17.201 7.66094 17.3681C8.06513 17.8053 8.1649 18.1217 8.24676 18.384C8.30049 18.5537 8.33886 18.6772 8.6791 18.8315C9.63075 19.2636 9.80471 19.5799 9.57447 20.0917C9.50284 20.2511 9.38773 20.39 9.24447 20.5623C9.12935 20.7012 8.9912 20.8684 8.85818 21.069C8.3977 21.7659 8.03188 22.6686 7.81699 23.6047C7.61489 24.4946 7.55093 25.4076 7.6814 26.2023C8.06257 28.522 10.5159 28.1697 12.4883 27.8868C13.8057 27.699 14.9441 27.5345 15.4967 28.1182C15.5581 28.1825 15.6093 28.2366 15.6553 28.2828C16.5405 29.2087 16.5661 29.2318 15.6656 30.7955C15.4942 31.0938 14.9007 31.4101 14.0692 31.6365C13.1329 31.8911 11.8257 32.0788 10.4647 32.0325C9.08842 31.9862 7.6507 31.7008 6.46625 31.0141C5.3432 30.3609 4.45295 29.3579 4.05131 27.8636C3.60618 26.2125 3.82107 24.1551 4.35573 22.2828M7.28744 18.2914C6.51742 19.0912 5.69623 20.7115 5.17948 22.522C4.68318 24.2631 4.47597 26.1585 4.87761 27.645C5.21273 28.8898 5.95717 29.7282 6.89603 30.2734C7.9449 30.8829 9.24191 31.135 10.4929 31.1787C11.7592 31.2224 12.9743 31.0475 13.8492 30.8109C14.4632 30.6438 14.8648 30.4792 14.9262 30.3711C15.5018 29.3681 15.4916 29.3553 15.0388 28.8846C14.9851 28.8306 14.9314 28.7715 14.8776 28.7149C14.6295 28.4526 13.6906 28.5863 12.6085 28.7406C10.2652 29.0775 7.35395 29.4942 6.83719 26.3437C6.68882 25.4384 6.75789 24.4071 6.98301 23.417C7.21837 22.3831 7.63024 21.3827 8.14444 20.5983C8.3056 20.354 8.4591 20.1688 8.58956 20.0119C8.69189 19.8885 8.77376 19.7908 8.79678 19.7393C8.8198 19.6853 8.66887 19.7702 8.32863 19.6159C7.63791 19.3021 7.55093 19.0218 7.43326 18.6412C7.40256 18.5383 7.36674 18.4252 7.29 18.2914H7.28744Z" fill="#1F1A17"/>
<path fill-rule="evenodd" clip-rule="evenodd" d="M21.5315 8.3951C27.4461 8.3951 26.3793 0.885454 25.7679 0.756865C25.4072 0.682283 25.1923 1.07834 24.9902 1.56698C24.0974 3.72215 22.6929 5.09548 20.237 5.16749C18.7251 5.21122 19.5873 6.0239 19.8508 7.04233C20.1245 8.09934 20.5594 8.3951 21.5315 8.3951Z" fill="#F7F2BD"/>
<path d="M25.9315 6.36345C25.1973 7.74707 23.8568 8.82466 21.5313 8.82466C20.9481 8.82466 20.5157 8.72693 20.1678 8.45432C19.8225 8.18685 19.5999 7.77536 19.4362 7.15042C19.3799 6.93439 19.2801 6.70293 19.1906 6.49204C19.0601 6.18857 18.9476 5.9211 18.9373 5.64849C18.922 5.10327 19.2187 4.76636 20.2215 4.73807C21.3472 4.70464 22.2297 4.37802 22.9281 3.81223C23.6368 3.23872 24.1714 2.41317 24.591 1.39988C24.7061 1.12213 24.8289 0.864949 24.9849 0.674636C25.21 0.402026 25.4838 0.258005 25.8496 0.335159C26.1719 0.402026 26.5071 1.06555 26.6196 1.99654C26.6913 2.58805 26.7092 3.32101 26.6145 4.07712C26.5198 4.84352 26.3075 5.64077 25.9263 6.36345M21.5313 7.96311C23.473 7.96311 24.5807 7.08612 25.1793 5.95968C25.5042 5.34502 25.6859 4.64806 25.7703 3.97168C25.8547 3.28758 25.8419 2.63177 25.7754 2.09941C25.7063 1.53619 25.691 1.17614 25.6808 1.17356C25.6756 1.17356 25.6705 1.19157 25.6475 1.21986C25.558 1.33044 25.471 1.51561 25.384 1.7265C24.9107 2.86838 24.2968 3.80708 23.4654 4.47832C22.6237 5.15728 21.5748 5.55333 20.2471 5.59191C19.8967 5.6022 19.7918 5.61248 19.7918 5.62277C19.7943 5.72307 19.8813 5.92367 19.976 6.14999C20.0757 6.38145 20.1832 6.63606 20.2599 6.93182C20.3725 7.36388 20.5029 7.62877 20.6871 7.77279C20.8662 7.91167 21.1374 7.96311 21.5288 7.96311H21.5313Z" fill="#1F1A17"/>
<path fill-rule="evenodd" clip-rule="evenodd" d="M9.75849 8.3951C3.84392 8.3951 4.91069 0.885454 5.5221 0.756865C5.88281 0.682283 6.0977 1.07834 6.2998 1.56698C7.19261 3.72215 8.59706 5.09548 11.0529 5.16749C12.5648 5.21122 11.7027 6.0239 11.4392 7.04233C11.1655 8.09934 10.7306 8.3951 9.75849 8.3951Z" fill="#F7F2BD"/>
<path d="M6.1105 5.95968C6.70912 7.08612 7.81682 7.96311 9.7585 7.96311C10.1499 7.96311 10.4211 7.91424 10.6002 7.77536C10.7843 7.63134 10.9148 7.36645 11.0274 6.93439C11.1041 6.63863 11.2141 6.38402 11.3113 6.15256C11.4085 5.92624 11.493 5.72564 11.4955 5.62534C11.4955 5.61506 11.3906 5.60477 11.0402 5.59448C9.71246 5.5559 8.66359 5.15985 7.82194 4.48089C6.99052 3.80966 6.37655 2.87095 5.90329 1.72907C5.81631 1.51819 5.72933 1.33302 5.63979 1.22243C5.61677 1.19414 5.61165 1.17356 5.60653 1.17614C5.5963 1.17614 5.58095 1.53876 5.51188 2.10198C5.44537 2.63434 5.43258 3.29015 5.517 3.97425C5.60142 4.65063 5.78305 5.34502 6.10794 5.96225M9.7585 8.82466C7.43309 8.82466 6.09259 7.74707 5.35839 6.36345C4.97466 5.64077 4.76488 4.84352 4.67023 4.07712C4.57558 3.31844 4.59348 2.58805 4.66511 1.99654C4.78023 1.06555 5.11536 0.402026 5.43514 0.335159C5.80096 0.258005 6.07469 0.402026 6.29981 0.674636C6.45842 0.864949 6.57865 1.12213 6.69377 1.39988C7.11332 2.41317 7.64798 3.23872 8.35661 3.81223C9.055 4.37545 9.93758 4.70464 11.0632 4.73807C12.0686 4.76636 12.3628 5.10584 12.3474 5.64849C12.3397 5.9211 12.2246 6.18857 12.0941 6.49204C12.0046 6.70293 11.9048 6.93182 11.8486 7.15042C11.6874 7.77536 11.4623 8.18685 11.1169 8.45432C10.769 8.72436 10.3367 8.82208 9.75339 8.82208L9.7585 8.82466Z" fill="#1F1A17"/>
<path fill-rule="evenodd" clip-rule="evenodd" d="M22.8669 10.5759H30.2601C31.5392 11.0131 30.0708 14.8014 26.7093 14.8554C24.5425 14.8888 20.6694 12.1524 22.8695 10.5759" fill="white"/>
<path d="M30.1679 11.0056H23.01C22.8233 11.1599 22.7133 11.3219 22.6672 11.4839C22.5956 11.7334 22.6698 12.0163 22.8412 12.3018C23.0433 12.6413 23.3733 12.9756 23.7672 13.2765C24.6524 13.9503 25.8343 14.4389 26.6989 14.4235C28.0599 14.4029 29.0781 13.6983 29.6767 12.8959C29.9274 12.5615 30.1039 12.2118 30.2011 11.8929C30.2881 11.6048 30.3111 11.3476 30.2625 11.165C30.2421 11.093 30.2114 11.0365 30.1653 11.003M22.8667 10.1466H30.26C30.3214 10.1466 30.3776 10.1595 30.4288 10.1826C30.7767 10.3112 30.9942 10.5838 31.0914 10.9464C31.1809 11.2833 31.1553 11.7026 31.0198 12.1449C30.8944 12.5564 30.6718 12.9987 30.3623 13.4128C29.6255 14.3952 28.3822 15.2568 26.7143 15.2825C25.668 15.2979 24.2738 14.7373 23.2556 13.9606C22.7747 13.5954 22.3705 13.1762 22.1121 12.7416C21.823 12.2555 21.7053 11.7463 21.8486 11.2473C21.9535 10.8744 22.2016 10.5272 22.6237 10.2238C22.6979 10.1698 22.7849 10.144 22.8719 10.144L22.8667 10.1466Z" fill="#1F1A17"/>
<path fill-rule="evenodd" clip-rule="evenodd" d="M8.48722 10.5759H1.09401C-0.185094 11.0131 1.28332 14.8014 4.6448 14.8554C6.8116 14.8888 10.6847 12.1524 8.48467 10.5759" fill="white"/>
<path d="M1.09648 10.1464H8.46667C8.55877 10.1412 8.65342 10.167 8.73528 10.2261C9.15739 10.5296 9.40298 10.8768 9.51042 11.2497C9.65112 11.7461 9.536 12.2578 9.24693 12.7439C8.98855 13.1785 8.58179 13.5952 8.10341 13.9629C7.08268 14.7396 5.69102 15.3028 4.64471 15.2848C2.97676 15.2591 1.73348 14.3976 0.996712 13.4151C0.68461 12.9985 0.464605 12.5587 0.339253 12.1473C0.203668 11.7049 0.178086 11.2857 0.267623 10.9488C0.367393 10.5733 0.597631 10.2981 0.963455 10.1721C1.00694 10.1593 1.05299 10.149 1.1016 10.149M8.34388 11.0054H1.19114C1.14509 11.0388 1.11183 11.0954 1.09137 11.1674C1.04276 11.3526 1.06322 11.6072 1.15276 11.8952C1.24997 12.2141 1.42649 12.5639 1.67719 12.8982C2.27837 13.7006 3.29398 14.4027 4.65495 14.4259C5.51962 14.4387 6.70151 13.9527 7.58665 13.2788C7.98317 12.9779 8.31062 12.641 8.51272 12.3041C8.68412 12.0161 8.75831 11.7358 8.68668 11.4863C8.64063 11.3243 8.53063 11.1623 8.34388 11.0079V11.0054Z" fill="#1F1A17"/>
<path fill-rule="evenodd" clip-rule="evenodd" d="M15.6526 4.86413C18.7352 4.72782 22.1274 7.40249 22.6416 10.0977C22.9205 11.5559 23.2991 13.3896 23.2991 14.8813C23.2991 15.64 23.3809 16.3626 23.3809 17.1084C23.3809 17.5842 22.9205 18.7287 23.6419 17.9469L15.6526 17.8671L7.66333 17.9469C8.38219 18.7287 7.92427 17.5842 7.92427 17.1084C7.92427 16.3626 8.00613 15.64 8.00613 14.8813C8.00613 13.3896 8.38474 11.5559 8.66359 10.0977C9.17779 7.40249 12.57 4.72782 15.6526 4.86413Z" fill="white"/>
<path fill-rule="evenodd" clip-rule="evenodd" d="M23.2966 14.6548C22.3348 15.5703 21.0377 16.131 19.6077 16.131C16.6428 16.131 14.238 13.7135 14.238 10.7328C14.238 8.13784 16.0595 5.97238 18.4847 5.45288C20.544 6.37101 22.2836 8.23042 22.6417 10.0975C22.9078 11.4837 23.2608 13.2068 23.2941 14.6548" fill="#AB8773"/>
<path d="M19.802 6.72087C18.5869 5.81046 17.0903 5.22923 15.6731 5.29095C15.6731 5.29095 15.6475 5.29095 15.6372 5.29095C14.22 5.22923 12.7234 5.81046 11.5083 6.72087C10.265 7.65186 9.32615 8.91718 9.08568 10.1774L9.01916 10.522C8.75311 11.9005 8.43589 13.549 8.43589 14.8786C8.43589 15.2541 8.41543 15.6399 8.3924 16.0256C8.37194 16.378 8.35403 16.7277 8.35403 17.1058C8.35403 17.1958 8.38473 17.3527 8.41543 17.5096L15.6475 17.4375H15.6526H15.6603L22.8974 17.5096C22.9281 17.3578 22.9563 17.2035 22.9563 17.1058C22.9563 16.7277 22.9358 16.378 22.9179 16.0256C22.8974 15.6399 22.8744 15.2541 22.8744 14.8786C22.8744 13.5413 22.5572 11.8953 22.2937 10.5194L22.2272 10.1748C21.9867 8.91461 21.0504 7.64929 19.8046 6.7183M15.6526 4.43454C17.2694 4.37025 18.9527 5.01834 20.3085 6.03163C21.7155 7.08349 22.7798 8.5417 23.0612 10.0153L23.1277 10.36C23.4014 11.7744 23.7263 13.4667 23.7263 14.8786C23.7263 15.2669 23.7468 15.6244 23.7672 15.9793C23.7877 16.3625 23.8107 16.7406 23.8107 17.1058C23.8107 17.2292 23.7877 17.3784 23.7595 17.5301C23.8235 17.5481 23.8823 17.5816 23.9335 17.6279C24.1049 17.7899 24.1151 18.0599 23.9565 18.2348C23.5267 18.7003 23.2198 18.7337 22.9793 18.51C22.9332 18.4663 22.8974 18.4174 22.8719 18.3634L15.6552 18.2914L8.43845 18.3634C8.42566 18.3891 8.41031 18.4148 8.3924 18.4405C8.3745 18.4663 8.35403 18.4894 8.33356 18.51C8.09309 18.7337 7.78355 18.7003 7.35633 18.2348C7.28726 18.1576 7.24377 18.0573 7.24121 17.9468C7.24121 17.7487 7.37168 17.5816 7.55075 17.5301C7.52261 17.381 7.49959 17.2344 7.49959 17.1032C7.49959 16.738 7.52006 16.36 7.54308 15.9768C7.56354 15.6219 7.58145 15.2644 7.58145 14.876C7.58145 13.4538 7.90634 11.7693 8.17751 10.3574L8.24403 10.0128C8.52543 8.53913 9.58965 7.08092 10.9967 6.02906C12.3525 5.0132 14.0358 4.36511 15.6526 4.43197V4.43454Z" fill="#1F1A17"/>
<path fill-rule="evenodd" clip-rule="evenodd" d="M24.238 19.0912C25.182 16.7457 23.8006 15.7736 21.8256 15.375C19.2418 14.8529 11.9535 14.8529 9.36973 15.375C7.39479 15.7736 6.01592 16.7483 6.95734 19.0912C10.1142 26.9403 21.0786 26.9403 24.2355 19.0912" fill="#EBB8C2"/>
<path fill-rule="evenodd" clip-rule="evenodd" d="M16.7527 14.9917C13.931 14.9454 10.8637 15.0715 9.36973 15.3749C7.39479 15.7736 6.01592 16.7483 6.95734 19.0912C8.70715 23.4452 12.8617 25.3818 16.7527 24.906C13.6291 24.5228 10.6744 22.5863 9.2674 19.0912C8.32342 16.7457 9.70485 15.7736 11.6798 15.3749C12.7696 15.1538 14.6959 15.0277 16.7527 14.9917Z" fill="white"/>
<path d="M24.4555 16.2314C25.0286 16.9386 25.1718 17.9108 24.6321 19.2507C23.5474 21.9511 21.575 23.7642 19.2982 24.6874C18.1163 25.1684 16.8551 25.4076 15.5965 25.4076C14.3378 25.4076 13.0741 25.1684 11.8947 24.6874C9.6205 23.7616 7.64812 21.9511 6.56089 19.2507C6.02111 17.9108 6.16692 16.9386 6.7374 16.2314C7.2823 15.5576 8.20837 15.1718 9.28538 14.9532C10.6105 14.6857 13.1099 14.552 15.5965 14.552C18.083 14.552 20.5824 14.6857 21.9076 14.9532C22.9846 15.1718 23.9106 15.5576 24.4555 16.2314ZM23.8416 18.9318C24.2458 17.9262 24.1716 17.2395 23.7955 16.774C23.3939 16.2751 22.6392 15.9768 21.7438 15.7942C20.4852 15.5396 18.0472 15.4136 15.599 15.4136C13.1508 15.4136 10.7129 15.5396 9.45422 15.7942C8.55629 15.9768 7.80418 16.2751 7.40254 16.774C7.02648 17.2395 6.95229 17.9262 7.35649 18.9318C8.34907 21.3981 10.1449 23.0492 12.2145 23.8928C13.2915 24.33 14.4453 24.5486 15.599 24.5486C16.7528 24.5486 17.9065 24.33 18.9835 23.8928C21.0531 23.0518 22.8515 21.3981 23.8416 18.9318Z" fill="#1F1A17"/>
<path d="M9.93005 20.3694C9.84818 20.1482 9.96075 19.9014 10.1808 19.8191C10.4008 19.7368 10.6463 19.8499 10.7282 20.0711C10.9866 20.7655 11.7029 21.3338 12.6392 21.7299C13.468 22.0797 14.4555 22.288 15.4558 22.3266C16.456 22.3651 17.464 22.2365 18.3312 21.9125C19.311 21.5447 20.1091 20.9249 20.4878 20.0145C20.5799 19.7959 20.8306 19.693 21.048 19.783C21.2655 19.8756 21.3678 20.1277 21.2782 20.3463C20.7973 21.4959 19.8201 22.2674 18.6279 22.7149C17.6533 23.0801 16.5302 23.2267 15.4251 23.183C14.3199 23.1392 13.225 22.9104 12.3066 22.522C11.1631 22.0385 10.2754 21.3056 9.92749 20.3694" fill="#1F1A17"/>
<path fill-rule="evenodd" clip-rule="evenodd" d="M15.6297 0.430176L22.3578 4.79451L29.0885 9.16142H15.6297H2.17358L8.90167 4.79451L15.6297 0.430176Z" fill="#CF8761"/>
<path d="M22.1276 5.15721L15.6297 0.942038L9.13188 5.15721L3.62406 8.72944H27.6379L22.1301 5.15721H22.1276ZM15.8728 0.0753422L22.5906 4.43454L29.3187 8.79887C29.5182 8.92746 29.5745 9.19236 29.4466 9.39296C29.3647 9.52155 29.2266 9.59099 29.0859 9.59099H15.6272H2.17356C1.9382 9.59099 1.74634 9.3981 1.74634 9.1615C1.74634 8.99947 1.83587 8.85803 1.96634 8.78602L8.6714 4.43711L15.3995 0.0676268C15.5479 -0.0275296 15.7346 -0.0198143 15.8728 0.0753422Z" fill="#1F1A17"/>
<path d="M12.2349 8.86577C12.1377 9.0818 11.8844 9.17953 11.6696 9.0818C11.4547 8.98407 11.3575 8.72946 11.4547 8.51343L13.995 2.87091L7.60968 9.20524C7.44084 9.37241 7.17223 9.36984 7.00594 9.2001C6.83966 9.03036 6.84222 8.76032 7.01106 8.59315L15.0208 0.65145C15.141 0.517716 15.3406 0.471424 15.512 0.548578C15.7269 0.646306 15.8241 0.900914 15.7269 1.11694L12.2375 8.86577H12.2349Z" fill="#1F1A17"/>
<path d="M16.0441 8.82194C16.0441 9.05854 15.8523 9.25143 15.6169 9.25143C15.3816 9.25143 15.1897 9.05854 15.1897 8.82194V0.936814C15.1897 0.700209 15.3816 0.507324 15.6169 0.507324C15.8523 0.507324 16.0441 0.700209 16.0441 0.936814V8.82194Z" fill="#1F1A17"/>
<path d="M19.7893 8.51335C19.8865 8.72938 19.7893 8.98399 19.5744 9.08172C19.3596 9.17945 19.1063 9.08172 19.0091 8.86569L15.5197 1.11687C15.4225 0.900836 15.5197 0.646228 15.7346 0.5485C15.9085 0.468774 16.1055 0.517638 16.2283 0.651372L24.2329 8.59308C24.4018 8.76025 24.4043 9.03028 24.2381 9.20002C24.0718 9.36976 23.8032 9.37233 23.6343 9.20517L17.249 2.87083L19.7893 8.51335Z" fill="#1F1A17"/>
<path fill-rule="evenodd" clip-rule="evenodd" d="M15.2459 23.692C15.5811 24.353 15.5478 30.6822 14.9876 31.2068C14.1254 32.0169 11.5237 31.6286 11.0249 30.4096C9.98371 27.8635 14.2687 21.7658 15.2459 23.692Z" fill="#4D4A47"/>
<path d="M15.013 28.0051C15.0744 26.1791 15.0207 24.1963 14.8646 23.8877C14.8135 23.7899 14.7521 23.7488 14.6805 23.7539C14.5142 23.7668 14.2916 23.8902 14.0384 24.096C13.7442 24.3326 13.4321 24.6695 13.1251 25.0655C11.9483 26.5932 10.8943 28.9695 11.4187 30.2477C11.4571 30.3429 11.5185 30.4303 11.5953 30.5152C11.8869 30.8289 12.3909 31.045 12.9255 31.1427C13.4704 31.243 14.0281 31.2224 14.4221 31.0604C14.5321 31.0141 14.6242 30.9601 14.6958 30.8932C14.8544 30.7441 14.9619 29.4479 15.0105 28.0025M15.627 23.4993C15.8393 23.9185 15.9314 26.0917 15.8649 28.0334C15.8086 29.6716 15.6244 31.2019 15.2791 31.5259C15.1333 31.6648 14.9516 31.7728 14.7495 31.8577C14.2046 32.084 13.4679 32.12 12.7746 31.9914C12.0736 31.8602 11.3932 31.5593 10.9736 31.1041C10.8278 30.9472 10.7127 30.7724 10.6334 30.5769C9.98615 28.9927 11.1348 26.2563 12.4523 24.5435C12.8002 24.0934 13.1609 23.7076 13.5062 23.4299C13.8925 23.1187 14.2737 22.9258 14.6216 22.9001C15.0514 22.8667 15.4019 23.0493 15.6321 23.5019L15.627 23.4993Z" fill="#1F1A17"/>
<path fill-rule="evenodd" clip-rule="evenodd" d="M15.9853 23.692C15.6502 24.353 15.6835 30.6822 16.2437 31.2068C17.1084 32.0169 19.7075 31.6286 20.2064 30.4096C21.2476 27.8635 16.9626 21.7658 15.9853 23.692Z" fill="#4D4A47"/>
<path d="M15.366 28.0308C15.2995 26.0891 15.3916 23.916 15.6039 23.4968C15.8342 23.0441 16.1846 22.8615 16.6144 22.895C16.9623 22.9207 17.3435 23.1136 17.7272 23.4248C18.0726 23.7051 18.4333 24.0883 18.7812 24.5383C20.1013 26.2512 21.2499 28.9901 20.6001 30.5718C20.5208 30.7672 20.4031 30.9421 20.2599 31.099C19.8378 31.5542 19.1598 31.8551 18.4589 31.9863C17.7656 32.1149 17.0288 32.0789 16.484 31.8525C16.2793 31.7677 16.1002 31.6571 15.9544 31.5208C15.609 31.1967 15.4249 29.6691 15.3686 28.0283M16.3663 23.8877C16.2102 24.1937 16.1565 26.1766 16.2205 28.0051C16.2691 29.4505 16.3765 30.7441 16.5351 30.8958C16.6067 30.9627 16.6988 31.0193 16.8088 31.063C17.2028 31.225 17.7605 31.2482 18.3054 31.1453C18.8426 31.045 19.3466 30.829 19.6357 30.5178C19.715 30.4329 19.7738 30.3429 19.8122 30.2503C20.3366 28.9696 19.2826 26.5958 18.1059 25.0681C17.7989 24.6721 17.4868 24.3352 17.1926 24.0986C16.9393 23.8928 16.7167 23.7694 16.5505 23.7565C16.4788 23.7514 16.4174 23.7925 16.3663 23.8903V23.8877Z" fill="#1F1A17"/>
<path d="M8.09577 12.0444C8.33112 12.0444 8.52299 12.2373 8.52299 12.4739C8.52299 12.7105 8.33112 12.9034 8.09577 12.9034H4.8801C4.64475 12.9034 4.45288 12.7105 4.45288 12.4739C4.45288 12.2373 4.64475 12.0444 4.8801 12.0444H8.09577Z" fill="#1F1A17"/>
<path d="M26.5633 12.0444C26.7987 12.0444 26.9905 12.2373 26.9905 12.4739C26.9905 12.7105 26.7987 12.9034 26.5633 12.9034H23.3476C23.1123 12.9034 22.9204 12.7105 22.9204 12.4739C22.9204 12.2373 23.1123 12.0444 23.3476 12.0444H26.5633Z" fill="#1F1A17"/>
<path d="M10.155 13.994C9.91965 13.994 9.72778 13.8011 9.72778 13.5645C9.72778 13.3279 9.91965 13.135 10.155 13.135H13.5549C13.7902 13.135 13.9821 13.3279 13.9821 13.5645C13.9821 13.8011 13.7902 13.994 13.5549 13.994H10.155Z" fill="#1F1A17"/>
<path d="M17.7888 13.994C17.5534 13.994 17.3616 13.8011 17.3616 13.5645C17.3616 13.3279 17.5534 13.135 17.7888 13.135H21.1886C21.424 13.135 21.6159 13.3279 21.6159 13.5645C21.6159 13.8011 21.424 13.994 21.1886 13.994H17.7888Z" fill="#1F1A17"/>
<path fill-rule="evenodd" clip-rule="evenodd" d="M11.4265 17.4786C12.3577 18.0187 12.8795 18.8674 12.5905 19.3689C12.3014 19.8729 11.3114 19.8421 10.3802 19.302C9.449 18.7619 8.92712 17.9132 9.2162 17.4117C9.50528 16.9076 10.4953 16.9385 11.4265 17.4786Z" fill="#1F1A17"/>
<path fill-rule="evenodd" clip-rule="evenodd" d="M19.7764 17.4349C18.8452 17.975 18.3234 18.8236 18.6124 19.3251C18.9015 19.8292 19.8915 19.7984 20.8227 19.2583C21.7539 18.7182 22.2758 17.8695 21.9867 17.368C21.6976 16.8639 20.7076 16.8948 19.7764 17.4349Z" fill="#1F1A17"/>
<path d="M65.245 22.6889C64.725 22.6889 64.415 23.0005 64.31 23.4228L63.165 27.7104L60.355 18.0896C60.355 18.0896 60.145 17.4613 59.42 17.4613C58.795 17.4613 58.38 17.8785 58.38 18.5068C58.38 18.6526 58.485 19.0296 58.485 19.0296L62.02 31.2692C62.125 31.6864 62.54 32.1037 63.06 32.1037C63.58 32.1037 63.975 31.6864 64.1 31.2692L65.245 27.0871L66.39 31.2692C66.515 31.6864 66.91 32.1037 67.43 32.1037C67.95 32.1037 68.365 31.6864 68.47 31.2692L72.01 19.0296C72.01 19.0296 72.115 18.6526 72.115 18.5068C72.115 17.8785 71.7 17.4613 71.075 17.4613C70.345 17.4613 70.14 18.0896 70.14 18.0896L67.33 27.7104L66.185 23.4228C66.08 23.0056 65.77 22.6889 65.25 22.6889M58.045 24.78C58.045 19.1301 56.17 17.2502 53.365 17.2502C50.56 17.2502 48.685 19.1351 48.685 24.78C48.685 30.4248 50.56 32.3148 53.365 32.3148C56.17 32.3148 58.045 30.4298 58.045 24.78ZM55.965 24.78C55.965 29.1732 54.925 30.2187 53.365 30.2187C51.805 30.2187 50.765 29.1732 50.765 24.78C50.765 20.3867 51.805 19.3412 53.365 19.3412C54.925 19.3412 55.965 20.3867 55.965 24.78ZM43.565 32.3148C45.75 32.3148 47 31.0581 47.415 29.8015C47.415 29.8015 47.52 29.4898 47.52 29.1732C47.52 28.5448 47.105 28.1276 46.585 28.1276C45.855 28.1276 45.65 28.756 45.65 28.756C45.34 29.5904 44.715 30.2187 43.57 30.2187C42.01 30.2187 40.97 29.1732 40.97 24.78C40.97 20.3867 42.01 19.3412 43.57 19.3412C44.61 19.3412 45.235 19.9695 45.445 20.5979C45.445 20.5979 45.655 21.2262 46.38 21.2262C46.9 21.2262 47.315 20.809 47.315 20.1807C47.315 19.869 47.21 19.5523 47.21 19.5523C46.9 18.5068 45.65 17.2502 43.57 17.2502C40.76 17.2502 38.89 19.1351 38.89 24.78C38.89 30.4248 40.765 32.3148 43.57 32.3148H43.565ZM65.05 4.32687C65.05 4.84963 65.36 5.16128 65.57 5.3724L68.485 8.19732V13.9477C68.485 14.4705 69.005 14.9932 69.525 14.9932C70.045 14.9932 70.565 14.4705 70.565 13.9477V8.19732L73.48 5.3724C73.69 5.16128 74 4.84963 74 4.32687V1.39638C74 0.873622 73.48 0.350859 72.96 0.350859C72.44 0.350859 71.92 0.873622 71.92 1.39638V3.90464L69.525 6.20681L67.13 3.90464V1.39638C67.13 0.873622 66.61 0.350859 66.09 0.350859C65.57 0.350859 65.05 0.873622 65.05 1.39638V4.32687ZM61.385 12.9072V1.40142C61.385 0.878653 60.865 0.35589 60.345 0.35589C59.825 0.35589 59.305 0.878653 59.305 1.40142V13.9527C59.305 14.4755 59.825 14.9983 60.345 14.9983H64.715C65.235 14.9983 65.755 14.4755 65.755 13.9527C65.755 13.43 65.235 12.9072 64.715 12.9072H61.385ZM57.1 7.67456C57.1 2.02471 55.225 0.144775 52.42 0.144775C49.615 0.144775 47.74 2.02973 47.74 7.67456C47.74 13.3194 49.615 15.2094 52.42 15.2094C55.225 15.2094 57.1 13.3244 57.1 7.67456ZM55.02 7.67456C55.02 12.0678 53.98 13.1133 52.42 13.1133C50.86 13.1133 49.82 12.0678 49.82 7.67456C49.82 3.28135 50.86 2.23582 52.42 2.23582C53.98 2.23582 55.02 3.28135 55.02 7.67456ZM39.08 5.79463V1.40142C39.08 0.878653 38.56 0.35589 38.04 0.35589C37.52 0.35589 37 0.878653 37 1.40142V13.9527C37 14.4755 37.52 14.9983 38.04 14.9983C38.56 14.9983 39.08 14.4755 39.08 13.9527V7.88568H43.45V13.9527C43.45 14.4755 43.97 14.9983 44.49 14.9983C45.01 14.9983 45.53 14.4755 45.53 13.9527V1.40142C45.53 0.878653 45.01 0.35589 44.49 0.35589C43.97 0.35589 43.45 0.878653 43.45 1.40142V5.79463H39.08Z" fill="#1F1A17"/>
</svg>
