<svg width="28" height="29" viewBox="0 0 28 29" fill="none" xmlns="http://www.w3.org/2000/svg">
<path fill-rule="evenodd" clip-rule="evenodd" d="M20.4976 15.1365C21.9554 16.2274 23.7618 20.8421 22.9704 23.7842C21.6946 28.5136 14.1579 27.0216 13.691 26.2084C13.0114 25.0272 13.0794 25.0955 13.7852 24.3506C14.7454 23.3324 19.9803 26.1599 20.5788 22.5126C20.8243 21.0206 20.3289 19.0923 19.5134 17.8516C18.9807 17.0428 18.4546 16.9524 19.5112 16.472C20.3047 16.1106 19.8466 15.8395 20.4998 15.1343" fill="white"/>
<path d="M22.3573 19.2992C21.9145 17.7477 21.2108 16.3593 20.5509 15.674C20.4852 15.7886 20.4545 15.8877 20.4282 15.9737C20.3273 16.2998 20.2506 16.5401 19.6609 16.8089C19.3694 16.9411 19.24 16.8684 19.2598 16.9147C19.2795 16.9588 19.3496 17.0425 19.4373 17.1483C19.5469 17.2805 19.6807 17.4392 19.8188 17.6508C20.2594 18.3207 20.6123 19.178 20.814 20.0661C21.0091 20.9146 21.0661 21.7961 20.939 22.5741C20.4961 25.2737 18.0015 24.9167 15.9934 24.628C15.0662 24.4958 14.2616 24.379 14.049 24.606C14.003 24.6545 13.9547 24.7052 13.9109 24.7514C13.5229 25.1547 13.5141 25.1658 14.0073 26.0252C14.06 26.1178 14.4041 26.2588 14.9302 26.4021C15.6778 26.607 16.7212 26.7547 17.8064 26.7172C18.8783 26.6798 19.9898 26.4638 20.8885 25.9415C21.6931 25.4743 22.331 24.7558 22.6182 23.6892C22.9623 22.4154 22.7848 20.7912 22.3595 19.2992M20.7329 14.8541C21.5791 15.5021 22.5195 17.2012 23.061 19.0965C23.5191 20.7008 23.7033 22.4639 23.3218 23.8787C22.9777 25.1569 22.2126 26.0186 21.2524 26.5784C20.2375 27.169 19.0055 27.4114 17.8261 27.4511C16.6599 27.4908 15.5419 27.3321 14.7373 27.1117C14.0249 26.9178 13.5185 26.6467 13.3694 26.3911C12.6 25.0512 12.6197 25.0291 13.3782 24.238C13.4177 24.1961 13.4615 24.152 13.5141 24.0969C13.9876 23.5966 14.9631 23.7355 16.0921 23.8986C17.7822 24.141 19.8867 24.4429 20.2112 22.4551C20.323 21.7763 20.2682 20.9917 20.095 20.2292C19.9108 19.427 19.5974 18.6535 19.2028 18.0563C19.0888 17.8844 18.9704 17.7411 18.8717 17.6221C18.749 17.4723 18.6503 17.3555 18.589 17.2188C18.3917 16.7803 18.5407 16.5092 19.3562 16.139C19.6478 16.0067 19.6807 15.9009 19.7267 15.7555C19.7968 15.5307 19.8801 15.2596 20.2287 14.885C20.3624 14.7417 20.5838 14.7285 20.7329 14.8541Z" fill="#1F1A17"/>
<path fill-rule="evenodd" clip-rule="evenodd" d="M6.29746 15.1365C4.83968 16.2274 3.03333 20.8421 3.8247 23.7842C5.10054 28.5136 12.6372 27.0216 13.1041 26.2084C13.7837 25.0272 13.7157 25.0955 13.0099 24.3506C12.0497 23.3324 6.81481 26.1599 6.21635 22.5126C5.97083 21.0206 6.46626 19.0923 7.28174 17.8516C7.81444 17.0428 8.34056 16.9524 7.28394 16.472C6.49037 16.1106 6.94854 15.8395 6.29527 15.1343" fill="white"/>
<path d="M3.73238 19.0965C4.27385 17.199 5.21429 15.4999 6.06265 14.8519C6.21172 14.7263 6.43094 14.7395 6.56466 14.8828C6.91102 15.2574 6.99651 15.5285 7.06666 15.7533C7.1127 15.8988 7.14558 16.0045 7.43714 16.1368C8.25262 16.507 8.40169 16.7781 8.2044 17.2166C8.14302 17.3533 8.04437 17.4723 7.92161 17.6199C7.82296 17.7389 7.70458 17.8822 7.59059 18.0541C7.196 18.6513 6.88252 19.4248 6.69838 20.227C6.5252 20.9895 6.4704 21.7719 6.5822 22.4529C6.90883 24.4407 9.01111 24.1388 10.7013 23.8964C11.8302 23.7355 12.8057 23.5944 13.2793 24.0947C13.3319 24.1498 13.3757 24.1961 13.4152 24.2358C14.1737 25.0291 14.1956 25.049 13.4239 26.3889C13.2771 26.6445 12.7685 26.9156 12.056 27.1095C11.2537 27.3277 10.1335 27.4886 8.96727 27.4489C7.78788 27.4092 6.55589 27.1646 5.54092 26.5762C4.57856 26.0164 3.81569 25.1569 3.47152 23.8765C3.09008 22.4617 3.27422 20.6986 3.73238 19.0943M6.2446 15.674C5.58476 16.3593 4.88108 17.7477 4.43826 19.2992C4.01298 20.7912 3.83542 22.4154 4.17959 23.6892C4.46676 24.7559 5.10468 25.4743 5.9092 25.9415C6.80799 26.4638 7.91941 26.6798 8.99138 26.7172C10.0765 26.7547 11.1178 26.6048 11.8675 26.4021C12.3936 26.2589 12.7378 26.1178 12.7904 26.0252C13.2836 25.1658 13.2749 25.1547 12.8869 24.7514C12.8408 24.7052 12.7948 24.6545 12.7487 24.606C12.5361 24.3812 11.7316 24.4958 10.8043 24.628C8.79628 24.9167 6.3016 25.2737 5.85878 22.5741C5.73164 21.7983 5.79083 20.9146 5.98374 20.0662C6.18541 19.1802 6.53835 18.3229 6.97898 17.6508C7.11708 17.4414 7.24861 17.2827 7.36041 17.1483C7.4481 17.0425 7.51825 16.9588 7.53798 16.9147C7.55771 16.8684 7.42837 16.9412 7.13681 16.8089C6.54493 16.5401 6.4704 16.2998 6.36956 15.9737C6.34325 15.8855 6.31256 15.7886 6.24679 15.674H6.2446Z" fill="#1F1A17"/>
<path fill-rule="evenodd" clip-rule="evenodd" d="M18.4505 7.19394C23.5188 7.19394 22.6047 0.758825 22.0808 0.648634C21.7717 0.584724 21.5875 0.92411 21.4143 1.34283C20.6493 3.18962 19.4458 4.36646 17.3413 4.42816C16.0457 4.46563 16.7845 5.16203 17.0103 6.03474C17.2449 6.94051 17.6175 7.19394 18.4505 7.19394Z" fill="#F7F2BD"/>
<path d="M22.2214 5.453C21.5922 6.63865 20.4435 7.56204 18.4509 7.56204C17.9511 7.56204 17.5806 7.4783 17.2824 7.2447C16.9865 7.0155 16.7958 6.66289 16.6555 6.12736C16.6073 5.94225 16.5218 5.7439 16.445 5.56319C16.3332 5.30314 16.2368 5.07394 16.228 4.84034C16.2149 4.37313 16.4692 4.08444 17.3285 4.06019C18.293 4.03154 19.0493 3.75166 19.6478 3.26682C20.255 2.77537 20.7132 2.06795 21.0727 1.19965C21.1713 0.96164 21.2766 0.741259 21.4103 0.578177C21.6032 0.344573 21.8378 0.22116 22.1512 0.287274C22.4275 0.344573 22.7146 0.913156 22.8111 1.71093C22.8725 2.21781 22.8878 2.8459 22.8067 3.49381C22.7256 4.15055 22.5436 4.83373 22.217 5.453M18.4509 6.82377C20.1147 6.82377 21.0639 6.07227 21.5769 5.107C21.8553 4.58029 22.0109 3.98306 22.0833 3.40346C22.1556 2.81725 22.1447 2.25527 22.0877 1.79909C22.0285 1.31645 22.0153 1.00792 22.0066 1.00572C22.0022 1.00572 21.9978 1.02114 21.9781 1.04538C21.9013 1.14015 21.8268 1.29882 21.7523 1.47953C21.3467 2.45802 20.8206 3.26241 20.1081 3.83761C19.3869 4.41941 18.4881 4.7588 17.3504 4.79186C17.0501 4.80067 16.9602 4.80949 16.9602 4.8183C16.9624 4.90425 17.0369 5.07615 17.118 5.27008C17.2035 5.46843 17.2956 5.6866 17.3614 5.94004C17.4578 6.31028 17.5696 6.53727 17.7275 6.66069C17.8809 6.77969 18.1133 6.82377 18.4487 6.82377H18.4509Z" fill="#1F1A17"/>
<path fill-rule="evenodd" clip-rule="evenodd" d="M8.36215 7.19394C3.29387 7.19394 4.208 0.758825 4.73193 0.648634C5.04103 0.584724 5.22517 0.92411 5.39835 1.34283C6.16341 3.18962 7.36691 4.36646 9.47139 4.42816C10.767 4.46563 10.0282 5.16203 9.8024 6.03474C9.56784 6.94051 9.19517 7.19394 8.36215 7.19394Z" fill="#F7F2BD"/>
<path d="M5.23618 5.107C5.74915 6.07227 6.69835 6.82377 8.3622 6.82377C8.69761 6.82377 8.92997 6.7819 9.08343 6.66289C9.24126 6.53948 9.35306 6.31248 9.44952 5.94225C9.51528 5.68881 9.60954 5.47063 9.69285 5.27229C9.77615 5.07835 9.84849 4.90646 9.85068 4.82051C9.85068 4.81169 9.7608 4.80288 9.46048 4.79406C8.32275 4.761 7.42396 4.42162 6.70274 3.83981C5.99029 3.26462 5.46417 2.46023 5.05862 1.48174C4.98408 1.30103 4.90955 1.14235 4.83282 1.04759C4.81309 1.02335 4.80871 1.00572 4.80433 1.00792C4.79556 1.00792 4.7824 1.31866 4.72322 1.80129C4.66622 2.25748 4.65526 2.81945 4.7276 3.40566C4.79994 3.98526 4.95559 4.58029 5.23399 5.10921M8.3622 7.56204C6.36953 7.56204 5.22084 6.63865 4.59169 5.453C4.26286 4.83373 4.0831 4.15055 4.00199 3.49381C3.92088 2.84369 3.93623 2.21781 3.99761 1.71093C4.09626 0.913156 4.38343 0.344573 4.65745 0.287274C4.97093 0.22116 5.20549 0.344573 5.3984 0.578177C5.53432 0.741259 5.63735 0.96164 5.73599 1.19965C6.09551 2.06795 6.55367 2.77537 7.1609 3.26682C7.75936 3.74946 8.51566 4.03154 9.48021 4.06019C10.3417 4.08444 10.5938 4.37534 10.5807 4.84034C10.5741 5.07394 10.4755 5.30314 10.3636 5.56319C10.2869 5.7439 10.2014 5.94004 10.1532 6.12736C10.0151 6.66289 9.82219 7.0155 9.52624 7.2447C9.22811 7.47609 8.85763 7.55984 8.35782 7.55984L8.3622 7.56204Z" fill="#1F1A17"/>
<path fill-rule="evenodd" clip-rule="evenodd" d="M19.5949 9.0625H25.9302C27.0263 9.43715 25.768 12.6834 22.8875 12.7296C21.0308 12.7583 17.7118 10.4134 19.5971 9.0625" fill="white"/>
<path d="M25.8511 9.4309H19.7174C19.5574 9.56313 19.4631 9.70197 19.4237 9.84081C19.3623 10.0546 19.4259 10.297 19.5727 10.5416C19.7459 10.8325 20.0287 11.119 20.3663 11.3769C21.1248 11.9543 22.1376 12.373 22.8785 12.3598C24.0448 12.3421 24.9172 11.7383 25.4302 11.0507C25.645 10.7642 25.7963 10.4645 25.8796 10.1912C25.9541 9.94439 25.9739 9.72401 25.9322 9.56754C25.9147 9.50583 25.8884 9.45735 25.8489 9.4287M19.5947 8.69483H25.93C25.9826 8.69483 26.0309 8.70585 26.0747 8.72568C26.3728 8.83587 26.5592 9.06948 26.6425 9.38022C26.7192 9.66891 26.6973 10.0281 26.5811 10.4072C26.4737 10.7598 26.283 11.1389 26.0177 11.4937C25.3864 12.3355 24.321 13.0738 22.8917 13.0958C21.9951 13.1091 20.8004 12.6286 19.9279 11.9631C19.5157 11.6501 19.1694 11.2909 18.948 10.9185C18.7003 10.502 18.5994 10.0656 18.7222 9.63806C18.8121 9.31851 19.0247 9.02099 19.3864 8.76095C19.45 8.71467 19.5245 8.69263 19.599 8.69263L19.5947 8.69483Z" fill="#1F1A17"/>
<path fill-rule="evenodd" clip-rule="evenodd" d="M7.27276 9.0625H0.937408C-0.158674 9.43715 1.09963 12.6834 3.98013 12.7296C5.83689 12.7583 9.15582 10.4134 7.27057 9.0625" fill="white"/>
<path d="M0.939849 8.6944H7.25547C7.33439 8.68999 7.4155 8.71203 7.48565 8.76271C7.84735 9.02276 8.0578 9.32028 8.14987 9.63983C8.27044 10.0652 8.17179 10.5037 7.92408 10.9202C7.70267 11.2927 7.35412 11.6497 6.94418 11.9648C6.06951 12.6304 4.87697 13.113 3.98038 13.0976C2.55109 13.0756 1.4857 12.3373 0.854355 11.4954C0.586911 11.1384 0.398385 10.7616 0.290969 10.409C0.174784 10.0299 0.152862 9.67068 0.229588 9.38199C0.315083 9.06023 0.512377 8.82442 0.825856 8.71644C0.863123 8.70542 0.902582 8.6966 0.944233 8.6966M7.15025 9.43047H1.02096C0.9815 9.45912 0.953002 9.5076 0.935464 9.56931C0.893813 9.72798 0.911351 9.94616 0.988076 10.193C1.07138 10.4663 1.22264 10.766 1.43747 11.0525C1.95263 11.7401 2.82292 12.3417 3.98915 12.3615C4.7301 12.3726 5.74288 11.956 6.50137 11.3786C6.84115 11.1208 7.12175 10.8321 7.29493 10.5434C7.4418 10.2966 7.50538 10.0564 7.44399 9.84258C7.40454 9.70374 7.31027 9.5649 7.15025 9.43267V9.43047Z" fill="#1F1A17"/>
<path fill-rule="evenodd" clip-rule="evenodd" d="M13.4135 4.1681C16.0551 4.0513 18.9619 6.34326 19.4025 8.65285C19.6414 9.90241 19.9659 11.4737 19.9659 12.7519C19.9659 13.4021 20.036 14.0213 20.036 14.6604C20.036 15.0681 19.6414 16.0488 20.2596 15.3789L13.4135 15.3106L6.56738 15.3789C7.18338 16.0488 6.79098 15.0681 6.79098 14.6604C6.79098 14.0213 6.86113 13.4021 6.86113 12.7519C6.86113 11.4737 7.18557 9.90241 7.42452 8.65285C7.86514 6.34326 10.7719 4.0513 13.4135 4.1681Z" fill="white"/>
<path fill-rule="evenodd" clip-rule="evenodd" d="M19.9626 12.5578C19.1384 13.3424 18.027 13.8228 16.8015 13.8228C14.2608 13.8228 12.2002 11.7512 12.2002 9.19702C12.2002 6.97338 13.761 5.11778 15.8392 4.67261C17.6039 5.45937 19.0945 7.05272 19.4014 8.65268C19.6294 9.84054 19.932 11.3171 19.9605 12.5578" fill="#AB8773"/>
<path d="M16.9686 5.75914C15.9273 4.97899 14.6449 4.48093 13.4304 4.53382C13.4304 4.53382 13.4085 4.53382 13.3998 4.53382C12.1853 4.48093 10.9029 4.97899 9.86161 5.75914C8.79621 6.55692 7.99169 7.64119 7.78563 8.72106L7.72863 9.01637C7.50065 10.1976 7.22882 11.6102 7.22882 12.7496C7.22882 13.0714 7.21128 13.4019 7.19155 13.7325C7.17401 14.0344 7.15867 14.3342 7.15867 14.6581C7.15867 14.7352 7.18497 14.8697 7.21128 15.0041L13.4085 14.9424H13.4129H13.4195L19.6211 15.0041C19.6474 14.8741 19.6715 14.7419 19.6715 14.6581C19.6715 14.3342 19.654 14.0344 19.6386 13.7325C19.6211 13.4019 19.6014 13.0714 19.6014 12.7496C19.6014 11.6036 19.3296 10.1932 19.1038 9.01416L19.0468 8.71885C18.8407 7.63899 18.0384 6.55471 16.9708 5.75694M13.4129 3.79996C14.7984 3.74486 16.2408 4.30022 17.4026 5.16852C18.6083 6.06988 19.5203 7.31944 19.7614 8.58222L19.8184 8.87753C20.053 10.0896 20.3314 11.5397 20.3314 12.7496C20.3314 13.0824 20.3489 13.3887 20.3664 13.6928C20.384 14.0212 20.4037 14.3452 20.4037 14.6581C20.4037 14.7639 20.384 14.8917 20.3599 15.0217C20.4147 15.0372 20.4651 15.0658 20.5089 15.1055C20.6558 15.2443 20.6646 15.4757 20.5287 15.6256C20.1604 16.0245 19.8973 16.0531 19.6913 15.8614C19.6518 15.8239 19.6211 15.7821 19.5992 15.7358L13.4151 15.6741L7.23101 15.7358C7.22005 15.7578 7.2069 15.7799 7.19155 15.8019C7.17621 15.8239 7.15867 15.8438 7.14113 15.8614C6.93507 16.0531 6.66982 16.0245 6.30373 15.6256C6.24454 15.5595 6.20727 15.4735 6.20508 15.3788C6.20508 15.2091 6.31688 15.0658 6.47033 15.0217C6.44622 14.8939 6.42649 14.7683 6.42649 14.6559C6.42649 14.343 6.44402 14.019 6.46375 13.6906C6.48129 13.3865 6.49664 13.0802 6.49664 12.7474C6.49664 11.5287 6.77504 10.0852 7.00741 8.87532L7.06441 8.58001C7.30554 7.31723 8.21748 6.06767 9.42317 5.16632C10.585 4.29581 12.0275 3.74045 13.4129 3.79775V3.79996Z" fill="#1F1A17"/>
<path fill-rule="evenodd" clip-rule="evenodd" d="M20.7697 16.3594C21.5786 14.3495 20.3948 13.5165 18.7025 13.1749C16.4884 12.7275 10.2429 12.7275 8.02883 13.1749C6.33648 13.5165 5.1549 14.3517 5.96162 16.3594C8.66675 23.0854 18.0624 23.0854 20.7675 16.3594" fill="#EBB8C2"/>
<path fill-rule="evenodd" clip-rule="evenodd" d="M14.3554 12.8466C11.9375 12.8069 9.30905 12.9149 8.02883 13.175C6.33648 13.5166 5.1549 14.3518 5.96162 16.3595C7.46106 20.0905 11.0211 21.75 14.3554 21.3423C11.6788 21.0139 9.14683 19.3545 7.94114 16.3595C7.13223 14.3496 8.316 13.5166 10.0083 13.175C10.9422 12.9854 12.5929 12.8775 14.3554 12.8466Z" fill="white"/>
<path d="M20.9558 13.9088C21.4468 14.5149 21.5696 15.3479 21.107 16.4961C20.1775 18.8101 18.4874 20.3638 16.5364 21.1549C15.5236 21.567 14.4428 21.772 13.3643 21.772C12.2858 21.772 11.2028 21.567 10.1922 21.1549C8.24341 20.3616 6.55326 18.8101 5.62159 16.4961C5.15904 15.3479 5.28399 14.5149 5.77285 13.9088C6.23978 13.3314 7.03334 13.0008 7.95624 12.8135C9.09178 12.5843 11.2335 12.4697 13.3643 12.4697C15.4951 12.4697 17.6368 12.5843 18.7724 12.8135C19.6953 13.0008 20.4888 13.3314 20.9558 13.9088ZM20.4296 16.2228C20.776 15.3611 20.7124 14.7727 20.3902 14.3738C20.046 13.9463 19.3993 13.6906 18.6321 13.5342C17.5535 13.316 15.4644 13.208 13.3665 13.208C11.2686 13.208 9.17947 13.316 8.10092 13.5342C7.33147 13.6906 6.68698 13.9463 6.34281 14.3738C6.02056 14.7727 5.95699 15.3611 6.30335 16.2228C7.15391 18.3363 8.69281 19.7511 10.4663 20.474C11.3892 20.8486 12.3778 21.0359 13.3665 21.0359C14.3552 21.0359 15.3438 20.8486 16.2667 20.474C18.0402 19.7533 19.5813 18.3363 20.4296 16.2228Z" fill="#1F1A17"/>
<path d="M8.50923 17.4549C8.43908 17.2654 8.53554 17.0538 8.72406 16.9833C8.91259 16.9128 9.12304 17.0098 9.19318 17.1993C9.41459 17.7943 10.0284 18.2814 10.8307 18.6207C11.541 18.9205 12.3872 19.099 13.2443 19.132C14.1014 19.1651 14.9651 19.0549 15.7083 18.7772C16.5479 18.4621 17.2318 17.931 17.5563 17.1508C17.6352 16.9635 17.85 16.8753 18.0364 16.9525C18.2227 17.0318 18.3104 17.2478 18.2337 17.4351C17.8215 18.4202 16.9841 19.0813 15.9626 19.4648C15.1274 19.7777 14.165 19.9034 13.218 19.8659C12.271 19.8284 11.3327 19.6323 10.5457 19.2995C9.56585 18.8852 8.80517 18.2571 8.50704 17.4549" fill="#1F1A17"/>
<path fill-rule="evenodd" clip-rule="evenodd" d="M13.3931 0.368652L19.1585 4.10851L24.926 7.85058H13.3931H1.8623L7.62769 4.10851L13.3931 0.368652Z" fill="#CF8761"/>
<path d="M18.9611 4.41929L13.393 0.807245L7.82487 4.41929L3.10514 7.48037H23.683L18.9632 4.41929H18.9611ZM13.6012 0.0645618L19.3578 3.80002L25.1232 7.53988C25.2942 7.65007 25.3424 7.87706 25.2328 8.04896C25.1627 8.15915 25.0443 8.21865 24.9237 8.21865H13.3908H1.86218C1.66051 8.21865 1.49609 8.05336 1.49609 7.85061C1.49609 7.71177 1.57282 7.59056 1.68462 7.52886L7.43028 3.80222L13.1957 0.0579503C13.3228 -0.0235905 13.4828 -0.0169791 13.6012 0.0645618Z" fill="#1F1A17"/>
<path d="M10.4838 7.59711C10.4004 7.78223 10.1834 7.86597 9.99928 7.78223C9.81514 7.69848 9.73184 7.4803 9.81514 7.29518L11.992 2.46003L6.52032 7.88801C6.37564 8.03126 6.14546 8.02905 6.00297 7.8836C5.86048 7.73815 5.86267 7.50675 6.00736 7.3635L12.871 0.558144C12.974 0.443546 13.145 0.403878 13.2919 0.469992C13.4761 0.553737 13.5594 0.771913 13.4761 0.957033L10.4859 7.59711H10.4838Z" fill="#1F1A17"/>
<path d="M13.7478 7.55972C13.7478 7.76247 13.5834 7.92776 13.3817 7.92776C13.18 7.92776 13.0156 7.76247 13.0156 7.55972V0.80285C13.0156 0.6001 13.18 0.434814 13.3817 0.434814C13.5834 0.434814 13.7478 0.6001 13.7478 0.80285V7.55972Z" fill="#1F1A17"/>
<path d="M16.9577 7.29519C17.041 7.48031 16.9577 7.69848 16.7735 7.78223C16.5894 7.86597 16.3724 7.78223 16.2891 7.59711L13.299 0.957036C13.2156 0.771916 13.299 0.553739 13.4831 0.469995C13.6322 0.401677 13.801 0.443549 13.9062 0.558147L20.7655 7.36351C20.9101 7.50675 20.9123 7.73815 20.7698 7.8836C20.6274 8.02906 20.3972 8.03126 20.2525 7.88801L14.7809 2.46003L16.9577 7.29519Z" fill="#1F1A17"/>
<path fill-rule="evenodd" clip-rule="evenodd" d="M13.0644 20.3019C13.3515 20.8683 13.323 26.2919 12.843 26.7415C12.1042 27.4357 9.87477 27.1029 9.44729 26.0583C8.55508 23.8765 12.227 18.6513 13.0644 20.3019Z" fill="#4D4A47"/>
<path d="M12.8654 23.998C12.918 22.4333 12.872 20.7341 12.7382 20.4697C12.6944 20.3859 12.6418 20.3507 12.5804 20.3551C12.4379 20.3661 12.2472 20.4719 12.0302 20.6482C11.7781 20.8509 11.5106 21.1396 11.2476 21.479C10.2392 22.7881 9.336 24.8244 9.78539 25.9197C9.81827 26.0012 9.87089 26.0762 9.93665 26.1489C10.1866 26.4178 10.6184 26.6029 11.0766 26.6866C11.5435 26.7726 12.0214 26.7549 12.359 26.6161C12.4533 26.5764 12.5322 26.5302 12.5936 26.4729C12.7295 26.345 12.8215 25.2343 12.8632 23.9958M13.3915 20.1369C13.5734 20.4961 13.6524 22.3583 13.5954 24.0222C13.5471 25.426 13.3893 26.7373 13.0934 27.015C12.9684 27.134 12.8128 27.2266 12.6396 27.2993C12.1727 27.4932 11.5413 27.5241 10.9472 27.4139C10.3466 27.3015 9.76347 27.0436 9.40396 26.6536C9.279 26.5191 9.18035 26.3693 9.1124 26.2018C8.55778 24.8442 9.54206 22.4994 10.671 21.0317C10.9692 20.646 11.2783 20.3154 11.5742 20.0774C11.9052 19.8107 12.2318 19.6455 12.53 19.6234C12.8983 19.5948 13.1986 19.7512 13.3959 20.1391L13.3915 20.1369Z" fill="#1F1A17"/>
<path fill-rule="evenodd" clip-rule="evenodd" d="M13.6974 20.3019C13.4102 20.8683 13.4387 26.2919 13.9188 26.7415C14.6598 27.4357 16.887 27.1029 17.3145 26.0583C18.2067 23.8765 14.5348 18.6513 13.6974 20.3019Z" fill="#4D4A47"/>
<path d="M13.1677 24.02C13.1107 22.3562 13.1896 20.4939 13.3715 20.1347C13.5688 19.7468 13.8691 19.5904 14.2374 19.619C14.5356 19.6411 14.8622 19.8064 15.191 20.073C15.487 20.3132 15.7961 20.6416 16.0942 21.0273C17.2253 22.495 18.2096 24.8421 17.6528 26.1974C17.5849 26.3649 17.484 26.5147 17.3613 26.6492C16.9996 27.0392 16.4186 27.2971 15.818 27.4095C15.2239 27.5197 14.5926 27.4888 14.1256 27.2949C13.9503 27.2222 13.7968 27.1274 13.6719 27.0106C13.3759 26.7329 13.2181 25.4239 13.1698 24.0178M14.0248 20.4697C13.8911 20.7319 13.845 22.4311 13.8998 23.998C13.9415 25.2365 14.0336 26.345 14.1695 26.4751C14.2309 26.5324 14.3098 26.5809 14.404 26.6183C14.7416 26.7572 15.2195 26.777 15.6865 26.6888C16.1468 26.6029 16.5787 26.4178 16.8264 26.1511C16.8943 26.0784 16.9448 26.0013 16.9776 25.9219C17.427 24.8244 16.5239 22.7903 15.5155 21.4812C15.2524 21.1419 14.985 20.8532 14.7329 20.6504C14.5158 20.4741 14.3251 20.3683 14.1826 20.3573C14.1212 20.3529 14.0686 20.3882 14.0248 20.4719V20.4697Z" fill="#1F1A17"/>
<path d="M6.93707 10.321C7.13875 10.321 7.30316 10.4863 7.30316 10.6891C7.30316 10.8918 7.13875 11.0571 6.93707 11.0571H4.18152C3.97984 11.0571 3.81543 10.8918 3.81543 10.6891C3.81543 10.4863 3.97984 10.321 4.18152 10.321H6.93707Z" fill="#1F1A17"/>
<path d="M22.7623 10.321C22.9639 10.321 23.1284 10.4863 23.1284 10.6891C23.1284 10.8918 22.9639 11.0571 22.7623 11.0571H20.0067C19.805 11.0571 19.6406 10.8918 19.6406 10.6891C19.6406 10.4863 19.805 10.321 20.0067 10.321H22.7623Z" fill="#1F1A17"/>
<path d="M8.70203 11.9914C8.50035 11.9914 8.33594 11.8262 8.33594 11.6234C8.33594 11.4207 8.50035 11.2554 8.70203 11.2554H11.6154C11.8171 11.2554 11.9815 11.4207 11.9815 11.6234C11.9815 11.8262 11.8171 11.9914 11.6154 11.9914H8.70203Z" fill="#1F1A17"/>
<path d="M15.243 11.9914C15.0414 11.9914 14.877 11.8262 14.877 11.6234C14.877 11.4207 15.0414 11.2554 15.243 11.2554H18.1564C18.3581 11.2554 18.5225 11.4207 18.5225 11.6234C18.5225 11.8262 18.3581 11.9914 18.1564 11.9914H15.243Z" fill="#1F1A17"/>
<path fill-rule="evenodd" clip-rule="evenodd" d="M9.79145 14.9775C10.5894 15.4403 11.0366 16.1675 10.7889 16.5973C10.5412 17.0292 9.6928 17.0028 8.89485 16.54C8.09691 16.0772 7.6497 15.3499 7.89742 14.9202C8.14513 14.4882 8.9935 14.5147 9.79145 14.9775Z" fill="#1F1A17"/>
<path fill-rule="evenodd" clip-rule="evenodd" d="M16.9466 14.9401C16.1487 15.4029 15.7015 16.1302 15.9492 16.5599C16.1969 16.9919 17.0453 16.9654 17.8432 16.5026C18.6412 16.0398 19.0884 15.3126 18.8406 14.8828C18.5929 14.4509 17.7446 14.4773 16.9466 14.9401Z" fill="#1F1A17"/>
</svg>
