<svg width="18" height="16" viewBox="0 0 18 16" fill="none" xmlns="http://www.w3.org/2000/svg">
<path fill-rule="evenodd" clip-rule="evenodd" d="M4.625 1.75H13.375C14.4105 1.75 15.25 2.58947 15.25 3.625V7.375H14V6.4375C14 5.57456 13.3004 4.875 12.4375 4.875H9.9375C9.58575 4.875 9.26114 4.99123 9 5.18739C8.73885 4.99123 8.41425 4.875 8.0625 4.875H5.5625C4.69956 4.875 4 5.57456 4 6.4375V7.375H2.75V3.625C2.75 2.58947 3.58947 1.75 4.625 1.75ZM5.25 7.375H8.375V6.4375C8.375 6.26491 8.23509 6.125 8.0625 6.125H5.5625C5.38991 6.125 5.25 6.26491 5.25 6.4375V7.375ZM3.375 8.625C2.33947 8.625 1.5 9.46447 1.5 10.5V11.125C1.5 12.1605 2.33947 13 3.375 13H14.625C15.6605 13 16.5 12.1605 16.5 11.125V10.5C16.5 9.46447 15.6605 8.625 14.625 8.625H3.375ZM13.375 14.25V14.875C13.375 15.2202 13.6548 15.5 14 15.5C14.3452 15.5 14.625 15.2202 14.625 14.875V14.25C16.3509 14.25 17.75 12.8509 17.75 11.125V10.5C17.75 9.47761 17.259 8.5699 16.5 7.99977V3.625C16.5 1.89911 15.1009 0.5 13.375 0.5H4.625C2.89911 0.5 1.5 1.89911 1.5 3.625V7.99977C0.740971 8.5699 0.25 9.47761 0.25 10.5V11.125C0.25 12.8509 1.64911 14.25 3.375 14.25L3.375 14.875C3.375 15.2202 3.65482 15.5 4 15.5C4.34518 15.5 4.625 15.2202 4.625 14.875V14.25H13.375ZM9.625 7.375H12.75V6.4375C12.75 6.26491 12.6101 6.125 12.4375 6.125H9.9375C9.76491 6.125 9.625 6.26491 9.625 6.4375V7.375Z" fill="#999999"/>
</svg>
