<svg width="16" height="18" viewBox="0 0 16 18" fill="none" xmlns="http://www.w3.org/2000/svg">
<path fill-rule="evenodd" clip-rule="evenodd" d="M3.93777 2.125C3.42 2.125 3.00027 2.54473 3.00027 3.0625V10.875H8.62541C8.62541 10.5298 8.90523 10.25 9.25041 10.25C9.59559 10.25 9.87541 10.5298 9.87541 10.875H11.7504C11.7504 10.5298 12.0302 10.25 12.3754 10.25C12.7206 10.25 13.0004 10.5298 13.0004 10.875H14.738C15.1324 10.875 15.4282 11.2358 15.3509 11.6226L14.7528 14.6129C14.5068 15.843 13.5584 16.7828 12.3754 17.0489V17.125C12.3754 17.4702 12.0956 17.75 11.7504 17.75C11.4052 17.75 11.1254 17.4702 11.1254 17.125H4.87541C4.87541 17.4702 4.59559 17.75 4.25041 17.75C3.90523 17.75 3.62541 17.4702 3.62541 17.125V17.0489C2.44243 16.7828 1.494 15.843 1.24798 14.6129L0.649923 11.6226C0.572574 11.2358 0.868381 10.875 1.26279 10.875H1.75027V3.0625C1.75027 1.85438 2.72964 0.875 3.93777 0.875C5.14589 0.875 6.12527 1.85438 6.12527 3.0625V4.15403C6.12527 4.28047 6.21216 4.41668 6.33861 4.41668H6.75027C7.09544 4.41668 7.37527 4.6965 7.37527 5.04168C7.37527 5.38685 7.09544 5.66668 6.75027 5.66668H4.25027C3.90509 5.66668 3.62527 5.38685 3.62527 5.04168C3.62527 4.6965 3.90509 4.41668 4.25027 4.41668H4.66193C4.78837 4.41668 4.87527 4.28047 4.87527 4.15403V3.0625C4.87527 2.54473 4.45553 2.125 3.93777 2.125ZM2.02516 12.125L2.47371 14.3677C2.64899 15.2441 3.41852 15.875 4.3123 15.875H11.6885C12.5823 15.875 13.3518 15.2441 13.5271 14.3677L13.9757 12.125H2.02516Z" fill="#999999"/>
<path d="M4.87527 6.50002C5.22044 6.50002 5.50027 6.77984 5.50027 7.12502V9.00002C5.50027 9.3452 5.22044 9.62502 4.87527 9.62502C4.53009 9.62502 4.25027 9.3452 4.25027 9.00002V7.12502C4.25027 6.77984 4.53009 6.50002 4.87527 6.50002Z" fill="#999999"/>
<path d="M7.37541 7.125C7.37541 6.77982 7.09559 6.5 6.75041 6.5C6.40523 6.5 6.12541 6.77982 6.12541 7.125V7.75C6.12541 8.09518 6.40523 8.375 6.75041 8.375C7.09559 8.375 7.37541 8.09518 7.37541 7.75V7.125Z" fill="#999999"/>
<path d="M14.2504 7.75C14.2504 8.09518 13.9706 8.375 13.6254 8.375C13.2802 8.375 13.0004 8.09518 13.0004 7.75C13.0004 7.40482 13.2802 7.125 13.6254 7.125C13.9706 7.125 14.2504 7.40482 14.2504 7.75Z" fill="#999999"/>
<path d="M11.7504 5.875C11.7504 6.22018 11.4706 6.5 11.1254 6.5C10.7802 6.5 10.5004 6.22018 10.5004 5.875C10.5004 5.52982 10.7802 5.25 11.1254 5.25C11.4706 5.25 11.7504 5.52982 11.7504 5.875Z" fill="#999999"/>
<path d="M10.5004 9C10.8456 9 11.1254 8.72018 11.1254 8.375C11.1254 8.02982 10.8456 7.75 10.5004 7.75C10.1552 7.75 9.87541 8.02982 9.87541 8.375C9.87541 8.72018 10.1552 9 10.5004 9Z" fill="#999999"/>
<path d="M14.2504 4.625C14.2504 4.97018 13.9706 5.25 13.6254 5.25C13.2802 5.25 13.0004 4.97018 13.0004 4.625C13.0004 4.27982 13.2802 4 13.6254 4C13.9706 4 14.2504 4.27982 14.2504 4.625Z" fill="#999999"/>
</svg>
