<svg width="19" height="19" viewBox="0 0 19 19" fill="none" xmlns="http://www.w3.org/2000/svg">
<path d="M12.3332 0.833008C12.5542 0.833008 12.7661 0.920805 12.9224 1.07709C13.0787 1.23337 13.1665 1.44533 13.1665 1.66634V2.49967H17.3332V7.49967H15.6507L17.939 13.7863C18.1029 14.2094 18.1787 14.6616 18.1618 15.115C18.1448 15.5684 18.0355 16.0136 17.8405 16.4233C17.6454 16.833 17.3688 17.1986 17.0275 17.4976C16.6863 17.7966 16.2875 18.0228 15.8558 18.1623C15.424 18.3019 14.9683 18.3518 14.5166 18.309C14.0649 18.2662 13.6266 18.1317 13.2287 17.9136C12.8308 17.6955 12.4816 17.3985 12.2025 17.0408C11.9235 16.683 11.7204 16.272 11.6057 15.833H8.0615C7.87211 16.5644 7.43999 17.2098 6.83591 17.6635C6.23184 18.1173 5.4916 18.3524 4.73641 18.3306C3.98123 18.3087 3.25585 18.031 2.67905 17.5431C2.10226 17.0551 1.70824 16.3858 1.5615 15.6447C1.29145 15.5036 1.06522 15.2912 0.907431 15.0306C0.749637 14.7699 0.666309 14.471 0.666504 14.1663V5.83301C0.666504 5.61199 0.754302 5.40003 0.910582 5.24375C1.06686 5.08747 1.27882 4.99967 1.49984 4.99967H7.33317C7.55418 4.99967 7.76615 5.08747 7.92243 5.24375C8.07871 5.40003 8.1665 5.61199 8.1665 5.83301V9.99967C8.1665 10.2207 8.2543 10.4326 8.41058 10.5889C8.56686 10.7452 8.77882 10.833 8.99984 10.833H10.6665C10.8875 10.833 11.0995 10.7452 11.2558 10.5889C11.412 10.4326 11.4998 10.2207 11.4998 9.99967V2.49967H8.99984V0.833008H12.3332ZM4.83317 13.333C4.39114 13.333 3.96722 13.5086 3.65466 13.8212C3.3421 14.1337 3.1665 14.5576 3.1665 14.9997C3.1665 15.4417 3.3421 15.8656 3.65466 16.1782C3.96722 16.4907 4.39114 16.6663 4.83317 16.6663C5.2752 16.6663 5.69912 16.4907 6.01168 16.1782C6.32424 15.8656 6.49984 15.4417 6.49984 14.9997C6.49984 14.5576 6.32424 14.1337 6.01168 13.8212C5.69912 13.5086 5.2752 13.333 4.83317 13.333ZM14.8332 13.3322C14.4787 13.3323 14.1336 13.4454 13.8478 13.655C13.562 13.8647 13.3505 14.16 13.244 14.498C13.1375 14.8361 13.1416 15.1993 13.2556 15.5349C13.3695 15.8705 13.5875 16.161 13.8779 16.3642C14.1683 16.5675 14.5159 16.6729 14.8702 16.6651C15.2245 16.6573 15.5672 16.5368 15.8484 16.321C16.1295 16.1053 16.3346 15.8055 16.4338 15.4652C16.5329 15.1249 16.5211 14.7619 16.3998 14.4288L16.3857 14.3922C16.2635 14.08 16.0499 13.8119 15.773 13.6229C15.496 13.4339 15.1685 13.3329 14.8332 13.333M13.8773 7.49967H13.1665V9.99967C13.1665 10.6627 12.9031 11.2986 12.4343 11.7674C11.9654 12.2363 11.3295 12.4997 10.6665 12.4997H8.99984C8.3368 12.4997 7.70091 12.2363 7.23207 11.7674C6.76323 11.2986 6.49984 10.6627 6.49984 9.99967H2.33317V12.7947C2.73387 12.3409 3.25052 12.0048 3.82771 11.8223C4.4049 11.6399 5.02087 11.6179 5.60958 11.7589C6.19828 11.8999 6.73752 12.1984 7.16947 12.6225C7.60141 13.0466 7.90978 13.5803 8.0615 14.1663H11.6048C11.8145 13.3538 12.3228 12.6502 13.0285 12.196C13.7341 11.7419 14.5851 11.5706 15.4115 11.7163L13.8773 7.49967ZM6.49984 6.66634H2.33317V8.33301H6.49984V6.66634ZM15.6665 4.16634H13.1665V5.83301H15.6665V4.16634Z" fill="#999999"/>
</svg>
