<svg width="14" height="16" viewBox="0 0 14 16" fill="none" xmlns="http://www.w3.org/2000/svg">
<path fill-rule="evenodd" clip-rule="evenodd" d="M0.75 6.125C0.75 5.03799 1.44376 4.11301 2.41265 3.76868C2.65895 3.68115 2.88039 3.51911 2.98656 3.28025C3.14748 2.91818 3.08572 2.49584 2.82786 2.19501C2.25696 1.52896 2.73022 0.5 3.60746 0.5H10.3925C11.2698 0.5 11.743 1.52896 11.1721 2.19501C10.9143 2.49584 10.8525 2.91818 11.0134 3.28025C11.1196 3.51911 11.341 3.68115 11.5873 3.76868C12.5562 4.11301 13.25 5.03799 13.25 6.125V13C13.25 14.3807 12.1307 15.5 10.75 15.5H3.25C1.86929 15.5 0.75 14.3807 0.75 13V6.125ZM4.12882 3.78792C4.42388 3.12403 4.38131 2.36875 4.03443 1.75H9.96557C9.61869 2.36875 9.57612 3.12403 9.87118 3.78792C10.1585 4.43448 10.7121 4.78423 11.1688 4.94651C11.6549 5.11928 12 5.58345 12 6.125V6.75H2V6.125C2 5.58345 2.34507 5.11928 2.83123 4.94651C3.28787 4.78423 3.84146 4.43449 4.12882 3.78792ZM12 8V13C12 13.6904 11.4404 14.25 10.75 14.25H3.25C2.55964 14.25 2 13.6904 2 13V8H12Z" fill="#999999"/>
</svg>
