<svg width="20" height="20" viewBox="0 0 20 20" fill="none" xmlns="http://www.w3.org/2000/svg">
<path d="M6.66663 1.66663V4.16663" stroke="#999999" stroke-width="1.5" stroke-miterlimit="10" stroke-linecap="round" stroke-linejoin="round"/>
<path d="M13.3334 1.66663V4.16663" stroke="#999999" stroke-width="1.5" stroke-miterlimit="10" stroke-linecap="round" stroke-linejoin="round"/>
<path d="M2.91663 7.57495H17.0833" stroke="#999999" stroke-width="1.5" stroke-miterlimit="10" stroke-linecap="round" stroke-linejoin="round"/>
<path d="M18.3333 15.8333C18.3333 16.4583 18.1583 17.05 17.85 17.55C17.275 18.5167 16.2166 19.1667 15 19.1667C14.1583 19.1667 13.3916 18.8583 12.8083 18.3333C12.55 18.1167 12.325 17.85 12.15 17.55C11.8416 17.05 11.6666 16.4583 11.6666 15.8333C11.6666 13.9917 13.1583 12.5 15 12.5C16 12.5 16.8916 12.9417 17.5 13.6333C18.0166 14.225 18.3333 14.9917 18.3333 15.8333Z" stroke="#999999" stroke-width="1.5" stroke-miterlimit="10" stroke-linecap="round" stroke-linejoin="round"/>
<path d="M13.7 15.8333L14.5249 16.6583L16.2999 15.0166" stroke="#999999" stroke-width="1.5" stroke-linecap="round" stroke-linejoin="round"/>
<path d="M17.5 7.08329V13.6333C16.8917 12.9416 16 12.5 15 12.5C13.1583 12.5 11.6667 13.9916 11.6667 15.8333C11.6667 16.4583 11.8417 17.05 12.15 17.55C12.325 17.85 12.55 18.1166 12.8083 18.3333H6.66667C3.75 18.3333 2.5 16.6666 2.5 14.1666V7.08329C2.5 4.58329 3.75 2.91663 6.66667 2.91663H13.3333C16.25 2.91663 17.5 4.58329 17.5 7.08329Z" stroke="#999999" stroke-width="1.5" stroke-miterlimit="10" stroke-linecap="round" stroke-linejoin="round"/>
<path d="M9.9962 11.4167H10.0037" stroke="#999999" stroke-width="2" stroke-linecap="round" stroke-linejoin="round"/>
<path d="M6.91197 11.4167H6.91945" stroke="#999999" stroke-width="2" stroke-linecap="round" stroke-linejoin="round"/>
<path d="M6.91197 13.9167H6.91945" stroke="#999999" stroke-width="2" stroke-linecap="round" stroke-linejoin="round"/>
</svg>
