<svg width="18" height="19" viewBox="0 0 18 19" fill="none" xmlns="http://www.w3.org/2000/svg">
<path d="M11.6325 2.84888H6.3675C4.5 2.84888 4.0875 3.77888 3.8475 4.91888L3 8.97638H15L14.1525 4.91888C13.9125 3.77888 13.5 2.84888 11.6325 2.84888Z" stroke="#999999" stroke-width="1.5" stroke-linecap="round" stroke-linejoin="round"/>
<path d="M16.4925 15.5913C16.575 16.4688 15.87 17.2263 14.97 17.2263H13.56C12.75 17.2263 12.6375 16.8813 12.495 16.4538L12.345 16.0038C12.135 15.3888 12 14.9763 10.92 14.9763H7.08005C6.00005 14.9763 5.84255 15.4413 5.65505 16.0038L5.50505 16.4538C5.36255 16.8813 5.25005 17.2263 4.44005 17.2263H3.03005C2.13005 17.2263 1.42505 16.4688 1.50755 15.5913L1.92755 11.0238C2.03255 9.89882 2.25005 8.97632 4.21505 8.97632H13.785C15.75 8.97632 15.9675 9.89882 16.0725 11.0238L16.4925 15.5913Z" stroke="#999999" stroke-width="1.5" stroke-linecap="round" stroke-linejoin="round"/>
<path d="M3 6.72632H2.25" stroke="#999999" stroke-width="1.5" stroke-linecap="round" stroke-linejoin="round"/>
<path d="M15.75 6.72632H15" stroke="#999999" stroke-width="1.5" stroke-linecap="round" stroke-linejoin="round"/>
<path d="M9 2.97632V4.47632" stroke="#999999" stroke-width="1.5" stroke-linecap="round" stroke-linejoin="round"/>
<path d="M7.875 4.47632H10.125" stroke="#999999" stroke-width="1.5" stroke-linecap="round" stroke-linejoin="round"/>
<path d="M4.5 11.9763H6.75" stroke="#999999" stroke-width="1.5" stroke-linecap="round" stroke-linejoin="round"/>
<path d="M11.25 11.9763H13.5" stroke="#999999" stroke-width="1.5" stroke-linecap="round" stroke-linejoin="round"/>
</svg>
