<svg width="18" height="16" viewBox="0 0 18 16" fill="none" xmlns="http://www.w3.org/2000/svg">
<path d="M9.00019 3C9.34537 3 9.62519 3.27982 9.62519 3.625V5.5C9.62519 5.84518 9.34537 6.125 9.00019 6.125C8.65501 6.125 8.37519 5.84518 8.37519 5.5V3.625C8.37519 3.27982 8.65501 3 9.00019 3Z" fill="#999999"/>
<path fill-rule="evenodd" clip-rule="evenodd" d="M2.53067 4.27901V4.25C2.53067 2.17893 4.2096 0.5 6.28067 0.5H11.7197C13.7908 0.5 15.4697 2.17893 15.4697 4.25V4.27901C17.0344 4.50632 18.1238 6.03529 17.7556 7.63091L17.155 10.2338C16.7819 11.8502 15.5406 13.0828 13.9924 13.4848L14.7089 14.5191C14.9054 14.8029 14.8347 15.1922 14.551 15.3888C14.2672 15.5853 13.8778 15.5147 13.6813 15.2309L12.5689 13.625L5.43122 13.625L4.31884 15.2309C4.12229 15.5147 3.73292 15.5853 3.44917 15.3888C3.16542 15.1922 3.09473 14.8029 3.29128 14.5191L4.00776 13.4848C2.45966 13.0827 1.2184 11.8501 0.845386 10.2338L0.244731 7.63093C-0.123492 6.0353 0.965976 4.50631 2.53067 4.27901ZM3.78067 4.25C3.78067 2.86929 4.89995 1.75 6.28067 1.75H11.7197C13.1004 1.75 14.2197 2.86929 14.2197 4.25V4.38279C13.4095 4.64391 12.747 5.27217 12.4579 6.1069L12.306 6.54547C12.0044 7.41611 11.1843 8.00001 10.2629 8.00001L7.73751 8.00002C6.81612 8.00002 5.99596 7.41612 5.69442 6.54547L5.54253 6.10692C5.25343 5.27218 4.59091 4.64391 3.78067 4.3828V4.25ZM12.9015 12.375L12.8886 12.375L5.10835 12.375L5.0983 12.375C3.64736 12.3704 2.38983 11.3673 2.06338 9.95269L1.46272 7.34985C1.24433 6.40351 1.96307 5.50001 2.93429 5.50001C3.57787 5.50001 4.15074 5.90786 4.36137 6.516L4.51326 6.95456C4.98913 8.32855 6.28345 9.25002 7.73751 9.25002L10.2629 9.25001C11.7169 9.25 13.0113 8.32854 13.4871 6.95455L13.639 6.51599C13.8496 5.90786 14.4225 5.50001 15.0661 5.50001C16.0373 5.50001 16.756 6.4035 16.5376 7.34983L15.937 9.95269C15.6105 11.3675 14.3526 12.3706 12.9015 12.375Z" fill="#999999"/>
</svg>
