<svg width="10" height="10" viewBox="0 0 10 10" fill="none" xmlns="http://www.w3.org/2000/svg">
<path d="M8.97746 1.76418L1.90639 8.83524C1.66479 9.07684 1.2641 9.07684 1.0225 8.83524C0.78091 8.59365 0.78091 8.19295 1.0225 7.95136L8.09357 0.880293C8.33517 0.638698 8.73586 0.638698 8.97746 0.880293C9.21905 1.12189 9.21905 1.52258 8.97746 1.76418Z" fill="#292D32"/>
<path d="M8.97746 8.83527C8.73586 9.07686 8.33517 9.07686 8.09357 8.83527L1.0225 1.7642C0.78091 1.5226 0.78091 1.12191 1.0225 0.880315C1.2641 0.63872 1.66479 0.63872 1.90639 0.880315L8.97746 7.95138C9.21905 8.19298 9.21905 8.59367 8.97746 8.83527Z" fill="#292D32"/>
</svg>
