<svg width="21" height="20" viewBox="0 0 21 20" fill="none" xmlns="http://www.w3.org/2000/svg">
<path d="M13.8332 1.8417C13.4916 1.50003 12.8999 1.73337 12.8999 2.20837V5.1167C12.8999 6.33337 13.9332 7.3417 15.1916 7.3417C15.9832 7.35004 17.0832 7.35004 18.0249 7.35004C18.4999 7.35004 18.7499 6.7917 18.4166 6.45837C17.2166 5.25004 15.0666 3.07504 13.8332 1.8417Z" fill="black"/>
<path d="M17.75 8.49175H15.3417C13.3667 8.49175 11.7583 6.88341 11.7583 4.90841V2.50008C11.7583 2.04175 11.3833 1.66675 10.925 1.66675H7.39167C4.825 1.66675 2.75 3.33341 2.75 6.30842V13.6917C2.75 16.6667 4.825 18.3334 7.39167 18.3334H13.9417C16.5083 18.3334 18.5833 16.6667 18.5833 13.6917V9.32508C18.5833 8.86675 18.2083 8.49175 17.75 8.49175ZM10.25 14.7917H6.91667C6.575 14.7917 6.29167 14.5084 6.29167 14.1667C6.29167 13.8251 6.575 13.5417 6.91667 13.5417H10.25C10.5917 13.5417 10.875 13.8251 10.875 14.1667C10.875 14.5084 10.5917 14.7917 10.25 14.7917ZM11.9167 11.4584H6.91667C6.575 11.4584 6.29167 11.1751 6.29167 10.8334C6.29167 10.4917 6.575 10.2084 6.91667 10.2084H11.9167C12.2583 10.2084 12.5417 10.4917 12.5417 10.8334C12.5417 11.1751 12.2583 11.4584 11.9167 11.4584Z" fill="black"/>
</svg>
