<svg width="20" height="20" viewBox="0 0 20 20" fill="none" xmlns="http://www.w3.org/2000/svg">
<path d="M12.125 1.66669H7.87496C6.37496 1.66669 6.04163 2.4167 5.84997 3.3417L5.16663 6.60835H14.8333L14.15 3.3417C13.9583 2.4167 13.625 1.66669 12.125 1.66669Z" stroke="#999999" stroke-width="1.5" stroke-linecap="round" stroke-linejoin="round"/>
<path d="M16.0333 11.9333C16.1 12.6417 15.5333 13.25 14.8083 13.25H13.675C13.025 13.25 12.9333 12.975 12.8167 12.625L12.6917 12.2666C12.525 11.775 12.4167 11.4416 11.5417 11.4416H8.45C7.58334 11.4416 7.45 11.8166 7.3 12.2666L7.175 12.625C7.05834 12.9667 6.96667 13.25 6.31667 13.25H5.18334C4.45834 13.25 3.89167 12.6417 3.95834 11.9333L4.30001 8.25001C4.38334 7.34168 4.55833 6.59998 6.14167 6.59998H13.85C15.4333 6.59998 15.6083 7.34168 15.6917 8.25001L16.0333 11.9333Z" stroke="#999999" stroke-width="1.5" stroke-linecap="round" stroke-linejoin="round"/>
<path d="M5.16668 4.79169H4.55835" stroke="#999999" stroke-width="1.5" stroke-linecap="round" stroke-linejoin="round"/>
<path d="M15.4417 4.79169H14.8334" stroke="#999999" stroke-width="1.5" stroke-linecap="round" stroke-linejoin="round"/>
<path d="M6.375 9.02502H8.18334" stroke="#999999" stroke-width="1.5" stroke-linecap="round" stroke-linejoin="round"/>
<path d="M11.8167 9.02502H13.625" stroke="#999999" stroke-width="1.5" stroke-linecap="round" stroke-linejoin="round"/>
<path d="M10 14.1667V15" stroke="#999999" stroke-width="1.5" stroke-linecap="round" stroke-linejoin="round"/>
<path d="M10 17.5V18.3333" stroke="#999999" stroke-width="1.5" stroke-linecap="round" stroke-linejoin="round"/>
<path d="M2.49996 15L1.66663 18.3333" stroke="#999999" stroke-width="1.5" stroke-linecap="round" stroke-linejoin="round"/>
<path d="M17.5 15L18.3333 18.3333" stroke="#999999" stroke-width="1.5" stroke-linecap="round" stroke-linejoin="round"/>
</svg>
