<svg width="20" height="18" viewBox="0 0 20 18" fill="none" xmlns="http://www.w3.org/2000/svg">
<path d="M15 1.5V5.66667M4.99996 1.5V5.66667M17.0833 2.33333V3.58333M17.0833 3.58333V4.83333M17.0833 3.58333H18.3333M2.91663 2.33333V3.58333M2.91663 3.58333V4.83333M2.91663 3.58333H1.66663M15 3.58333H4.99996M7.49996 5.66667V12.3333M12.5 5.66667V12.3333M13.3333 14.8333V16.5M6.66663 14.8333V16.5M6.06413 14.8333H13.9366C14.9675 14.8333 15.4833 14.8333 15.6966 14.5808C16.18 14.0092 15.2533 13.2525 14.915 12.8717C14.5341 12.4417 14.255 12.3333 13.6916 12.3333H6.30829C5.74496 12.3333 5.46663 12.4417 5.08496 12.8717C4.74663 13.2525 3.81996 14.0092 4.30329 14.5808C4.51663 14.8333 5.03329 14.8333 6.06413 14.8333Z" stroke="#999999" stroke-width="1.5" stroke-linecap="round" stroke-linejoin="round"/>
</svg>
