<svg width="30" height="28" viewBox="0 0 30 28" fill="none" xmlns="http://www.w3.org/2000/svg">
<path d="M28.3334 25.0599H27.0001V10.0333C27.0001 9.2066 26.6267 8.43327 25.9734 7.9266L16.6401 0.673271C15.6801 -0.0867285 14.3201 -0.0867285 13.3601 0.673271L4.02675 7.9266C3.37341 8.43327 3.00008 9.2066 3.00008 10.0199L2.93341 25.0599H1.66675C1.12008 25.0599 0.666748 25.4999 0.666748 26.0599C0.666748 26.6066 1.12008 27.0599 1.66675 27.0599H28.3334C28.8801 27.0599 29.3334 26.6066 29.3334 26.0599C29.3334 25.4999 28.8801 25.0599 28.3334 25.0599ZM13.0001 5.7266H17.0001C17.5467 5.7266 18.0001 6.17994 18.0001 6.7266C18.0001 7.27327 17.5467 7.7266 17.0001 7.7266H13.0001C12.4534 7.7266 12.0001 7.27327 12.0001 6.7266C12.0001 6.17994 12.4534 5.7266 13.0001 5.7266ZM21.6667 25.0599H8.33341V13.3933C8.33341 12.2866 9.22675 11.3933 10.3334 11.3933H19.6667C20.7734 11.3933 21.6667 12.2866 21.6667 13.3933V25.0599Z" fill="#292D32"/>
</svg>
