<svg width="16" height="17" viewBox="0 0 16 17" fill="none" xmlns="http://www.w3.org/2000/svg">
<path d="M5.33696 8.10672C5.33696 6.63271 6.53121 5.43747 8.0048 5.43747C9.47839 5.43747 10.6733 6.63271 10.6733 8.10672C10.6733 9.58073 9.47839 10.776 8.0048 10.776C6.53121 10.776 5.33696 9.58073 5.33696 8.10672ZM3.89443 8.10672C3.89443 10.3775 5.73464 12.2183 8.0048 12.2183C10.275 12.2183 12.1152 10.3775 12.1152 8.10672C12.1152 5.8359 10.275 3.99516 8.0048 3.99516C5.73464 3.99516 3.89443 5.8359 3.89443 8.10672ZM11.3173 3.83214C11.3172 4.02218 11.3735 4.20797 11.479 4.36603C11.5845 4.52408 11.7344 4.64729 11.9099 4.72009C12.0854 4.79288 12.2786 4.81199 12.4649 4.77499C12.6513 4.73799 12.8225 4.64655 12.9568 4.51222C13.0912 4.3779 13.1828 4.20673 13.2199 4.02035C13.2571 3.83398 13.2381 3.64078 13.1655 3.46518C13.0929 3.28957 12.9698 3.13946 12.8119 3.03382C12.654 2.92817 12.4683 2.87175 12.2783 2.87167H12.2779C12.0232 2.87179 11.779 2.97301 11.5989 3.15309C11.4188 3.33318 11.3175 3.57741 11.3173 3.83214V3.83214ZM4.77086 14.6243C3.99043 14.5888 3.56623 14.4587 3.28434 14.3489C2.91061 14.2033 2.64395 14.03 2.36359 13.7499C2.08323 13.4699 1.90969 13.2034 1.76483 12.8296C1.65494 12.5477 1.52495 12.1233 1.48947 11.3426C1.45066 10.4986 1.44291 10.2451 1.44291 8.10678C1.44291 5.9685 1.4513 5.71567 1.48947 4.87095C1.52501 4.09029 1.65597 3.66668 1.76483 3.384C1.91033 3.01016 2.08362 2.74343 2.36359 2.46299C2.64357 2.18255 2.90997 2.00895 3.28434 1.86406C3.56611 1.75413 3.99043 1.6241 4.77086 1.58861C5.61463 1.54979 5.8681 1.54204 8.0048 1.54204C10.1415 1.54204 10.3952 1.55043 11.2397 1.58861C12.0201 1.62416 12.4436 1.75516 12.7262 1.86406C13.1 2.00895 13.3666 2.18293 13.647 2.46299C13.9273 2.74304 14.1002 3.01016 14.2457 3.384C14.3556 3.66585 14.4856 4.09029 14.5211 4.87095C14.5599 5.71567 14.5676 5.9685 14.5676 8.10678C14.5676 10.2451 14.5599 10.4979 14.5211 11.3426C14.4856 12.1233 14.3549 12.5476 14.2457 12.8296C14.1002 13.2034 13.9269 13.4701 13.647 13.7499C13.367 14.0297 13.1 14.2033 12.7262 14.3489C12.4445 14.4588 12.0201 14.5888 11.2397 14.6243C10.3959 14.6631 10.1425 14.6709 8.0048 14.6709C5.86713 14.6709 5.61438 14.6631 4.77086 14.6243V14.6243ZM4.70458 0.1481C3.85242 0.186919 3.27012 0.322079 2.76159 0.520015C2.23494 0.72442 1.7891 0.998648 1.34359 1.44359C0.898075 1.88853 0.624631 2.33519 0.420284 2.862C0.222405 3.37099 0.0872843 3.95314 0.0484771 4.80555C0.00902942 5.6593 0 5.93224 0 8.10672C0 10.2812 0.00902942 10.5541 0.0484771 11.4079C0.0872843 12.2604 0.222405 12.8424 0.420284 13.3514C0.624631 13.8779 0.898139 14.3251 1.34359 14.7699C1.78904 15.2146 2.23494 15.4884 2.76159 15.6934C3.27108 15.8914 3.85242 16.0265 4.70458 16.0653C5.55853 16.1042 5.83095 16.1138 8.0048 16.1138C10.1786 16.1138 10.4515 16.1048 11.305 16.0653C12.1572 16.0265 12.7392 15.8914 13.248 15.6934C13.7743 15.4884 14.2205 15.2148 14.666 14.7699C15.1115 14.3249 15.3844 13.8779 15.5893 13.3514C15.7872 12.8424 15.923 12.2603 15.9611 11.4079C15.9999 10.5535 16.009 10.2812 16.009 8.10672C16.009 5.93224 15.9999 5.6593 15.9611 4.80555C15.9223 3.95308 15.7872 3.37067 15.5893 2.862C15.3844 2.33551 15.1108 1.88923 14.666 1.44359C14.2212 0.997943 13.7743 0.72442 13.2487 0.520015C12.7392 0.322079 12.1572 0.186278 11.3057 0.1481C10.4522 0.109282 10.1793 0.0996094 8.00544 0.0996094C5.83159 0.0996094 5.55853 0.108641 4.70458 0.1481Z" fill="black"/>
</svg>
