<svg width="32" height="33" viewBox="0 0 32 33" fill="none" xmlns="http://www.w3.org/2000/svg">
<path d="M26.3868 6.35332C22.4401 2.41999 16.0401 2.41999 12.1201 6.35332C9.36011 9.08665 8.53345 13.02 9.60011 16.4867L3.33345 22.7533C2.89345 23.2067 2.58678 24.1 2.68011 24.74L3.08011 27.6467C3.22678 28.6067 4.12011 29.5133 5.08011 29.6467L7.98678 30.0467C8.62678 30.14 9.52011 29.8467 9.97345 29.38L11.0668 28.2867C11.3334 28.0333 11.3334 27.6067 11.0668 27.34L8.48011 24.7533C8.09345 24.3667 8.09345 23.7267 8.48011 23.34C8.86678 22.9533 9.50678 22.9533 9.89345 23.34L12.4934 25.94C12.7468 26.1933 13.1734 26.1933 13.4268 25.94L16.2534 23.1267C19.7068 24.2067 23.6401 23.3667 26.3868 20.6333C30.3201 16.7 30.3201 10.2867 26.3868 6.35332ZM19.3334 16.7267C17.4934 16.7267 16.0001 15.2333 16.0001 13.3933C16.0001 11.5533 17.4934 10.06 19.3334 10.06C21.1734 10.06 22.6668 11.5533 22.6668 13.3933C22.6668 15.2333 21.1734 16.7267 19.3334 16.7267Z" fill="#292D32"/>
</svg>
