<svg width="18" height="18" viewBox="0 0 18 18" fill="none" xmlns="http://www.w3.org/2000/svg">
<path d="M4.625 5.25C4.97018 5.25 5.25 4.97018 5.25 4.625C5.25 4.27982 4.97018 4 4.625 4C4.27982 4 4 4.27982 4 4.625C4 4.97018 4.27982 5.25 4.625 5.25Z" fill="#999999"/>
<path d="M12.75 4.625C12.75 4.97018 12.4702 5.25 12.125 5.25C11.7798 5.25 11.5 4.97018 11.5 4.625C11.5 4.27982 11.7798 4 12.125 4C12.4702 4 12.75 4.27982 12.75 4.625Z" fill="#999999"/>
<path d="M14 5.25C14.3452 5.25 14.625 4.97018 14.625 4.625C14.625 4.27982 14.3452 4 14 4C13.6548 4 13.375 4.27982 13.375 4.625C13.375 4.97018 13.6548 5.25 14 5.25Z" fill="#999999"/>
<path fill-rule="evenodd" clip-rule="evenodd" d="M4.9375 6.5C4.07456 6.5 3.375 7.19956 3.375 8.0625V11.8125C3.375 12.6754 4.07456 13.375 4.9375 13.375H13.0625C13.9254 13.375 14.625 12.6754 14.625 11.8125V8.0625C14.625 7.19956 13.9254 6.5 13.0625 6.5H4.9375ZM4.9375 7.75C4.76491 7.75 4.625 7.88991 4.625 8.0625V11.8125C4.625 11.9851 4.76491 12.125 4.9375 12.125H13.0625C13.2351 12.125 13.375 11.9851 13.375 11.8125V8.0625C13.375 7.88991 13.2351 7.75 13.0625 7.75H11.5C11.5 8.09518 11.2202 8.375 10.875 8.375H7.125C6.77982 8.375 6.5 8.09518 6.5 7.75H4.9375Z" fill="#999999"/>
<path fill-rule="evenodd" clip-rule="evenodd" d="M17.125 12.75C17.125 14.2618 16.0514 15.5229 14.625 15.8125V16.5C14.625 16.8452 14.3452 17.125 14 17.125C13.6548 17.125 13.375 16.8452 13.375 16.5V15.875H4.625V16.5C4.625 16.8452 4.34518 17.125 4 17.125C3.65482 17.125 3.375 16.8452 3.375 16.5V15.8125C1.9486 15.5229 0.875 14.2618 0.875 12.75V4.625C0.875 3.31949 1.67555 2.20095 2.81253 1.73352C2.97681 1.23491 3.44638 0.875 4 0.875H8.375C8.83768 0.875 9.24164 1.12637 9.45777 1.5H9.79223C10.0084 1.12637 10.4123 0.875 10.875 0.875H14C14.5536 0.875 15.0232 1.23491 15.1875 1.73352C16.3245 2.20095 17.125 3.31949 17.125 4.625V12.75ZM4 2.75H14C15.0355 2.75 15.875 3.58947 15.875 4.625V12.75C15.875 13.7855 15.0355 14.625 14 14.625H4C2.96447 14.625 2.125 13.7855 2.125 12.75V4.625C2.125 3.58947 2.96447 2.75 4 2.75Z" fill="#999999"/>
</svg>
