<svg width="22" height="16" viewBox="0 0 22 16" fill="none" xmlns="http://www.w3.org/2000/svg">
<path fill-rule="evenodd" clip-rule="evenodd" d="M2.51208 0.480819C1.5339 0.125536 0.5 0.849998 0.5 1.8907V12.1233C0.5 12.7543 0.894858 13.3178 1.48792 13.5332L6.8265 15.4722C7.10274 15.5725 7.40236 15.5895 7.68816 15.521L13.6075 14.1024C13.8646 14.0408 14.1334 14.0482 14.3867 14.1239L19.5704 15.6733C20.5325 15.9609 21.5 15.2403 21.5 14.2361V3.94292C21.5 3.27995 21.0648 2.6956 20.4296 2.50575L14.3867 0.699611C14.1334 0.62391 13.8646 0.616487 13.6075 0.678092L7.68816 2.09666C7.40236 2.16515 7.10274 2.14818 6.8265 2.04785L2.51208 0.480819ZM20 14.2361L20 3.94292L14.75 2.37377V12.6678C14.7721 12.6739 14.7942 12.6802 14.8162 12.6868L20 14.2361ZM13.25 12.6456L8 13.9038L8 3.56414C8.01259 3.5613 8.02517 3.55837 8.03773 3.55536L13.25 2.30625V12.6456ZM6.5 13.7577L6.5 3.51838C6.43763 3.50022 6.37574 3.48 6.31442 3.45773L2 1.8907L2 12.1233L6.5 13.7577Z" fill="#999999"/>
</svg>
