<svg width="32" height="33" viewBox="0 0 32 33" fill="none" xmlns="http://www.w3.org/2000/svg">
<path d="M22.6667 3.96655H9.33341C5.33341 3.96655 2.66675 6.63322 2.66675 10.6332V18.6332C2.66675 22.6332 5.33341 25.2999 9.33341 25.2999H14.6667L20.6001 29.2465C21.4801 29.8332 22.6667 29.2066 22.6667 28.1399V25.2999C26.6667 25.2999 29.3334 22.6332 29.3334 18.6332V10.6332C29.3334 6.63322 26.6667 3.96655 22.6667 3.96655ZM20.6667 15.7266H11.3334C10.7867 15.7266 10.3334 15.2732 10.3334 14.7266C10.3334 14.1799 10.7867 13.7266 11.3334 13.7266H20.6667C21.2134 13.7266 21.6667 14.1799 21.6667 14.7266C21.6667 15.2732 21.2134 15.7266 20.6667 15.7266Z" fill="#292D32"/>
</svg>
