<svg width="18" height="18" viewBox="0 0 18 18" fill="none" xmlns="http://www.w3.org/2000/svg">
<path fill-rule="evenodd" clip-rule="evenodd" d="M8.375 2.125V2.77412C4.17972 3.09907 0.875 6.66626 0.875 10.9433C0.875 11.5905 1.39967 12.125 2.04687 12.125H15.9531C16.6003 12.125 17.125 11.5905 17.125 10.9433C17.125 6.66626 13.8203 3.09907 9.625 2.77412V2.125H10.25C10.5952 2.125 10.875 1.84518 10.875 1.5C10.875 1.15482 10.5952 0.875 10.25 0.875H7.75C7.40482 0.875 7.125 1.15482 7.125 1.5C7.125 1.84518 7.40482 2.125 7.75 2.125H8.375ZM2.12533 10.875C2.16199 7.09533 5.23923 4 9 4C12.7608 4 15.838 7.09533 15.8747 10.875H2.12533Z" fill="#999999"/>
<path fill-rule="evenodd" clip-rule="evenodd" d="M0.875 15.25C0.875 14.2145 1.71447 13.375 2.75 13.375H15.25C16.2855 13.375 17.125 14.2145 17.125 15.25C17.125 16.2855 16.2855 17.125 15.25 17.125H2.75C1.71447 17.125 0.875 16.2855 0.875 15.25ZM2.125 15.25C2.125 14.9048 2.40482 14.625 2.75 14.625H15.25C15.5952 14.625 15.875 14.9048 15.875 15.25C15.875 15.5952 15.5952 15.875 15.25 15.875H2.75C2.40482 15.875 2.125 15.5952 2.125 15.25Z" fill="#999999"/>
</svg>
