<svg width="20" height="21" viewBox="0 0 20 21" fill="none" xmlns="http://www.w3.org/2000/svg">
<path d="M1.72488 4.55966C2.39155 1.67632 6.73322 1.67632 7.39155 4.55966C7.78322 6.25132 6.70822 7.68466 5.77488 8.57632C5.09155 9.22632 4.01655 9.21799 3.33322 8.57632C2.40822 7.68466 1.33322 6.25132 1.72488 4.55966Z" stroke="black" stroke-opacity="0.4" stroke-width="1.5"/>
<path d="M12.5583 14.5597C13.225 11.6763 17.5917 11.6763 18.2583 14.5597C18.65 16.2513 17.575 17.6847 16.6333 18.5763C15.95 19.2263 14.8667 19.218 14.1833 18.5763C13.2417 17.6847 12.1667 16.2513 12.5583 14.5597Z" stroke="black" stroke-opacity="0.4" stroke-width="1.5"/>
<path d="M9.99991 4.89301H12.2332C13.7749 4.89301 14.4916 6.80134 13.3332 7.81801L6.67491 13.643C5.51658 14.6513 6.23325 16.5597 7.76658 16.5597H9.99991" stroke="black" stroke-opacity="0.4" stroke-width="1.5" stroke-linecap="round" stroke-linejoin="round"/>
<path d="M4.57209 5.30961H4.58172" stroke="black" stroke-opacity="0.4" stroke-width="2" stroke-linecap="round" stroke-linejoin="round"/>
<path d="M15.4051 15.3097H15.4147" stroke="black" stroke-opacity="0.4" stroke-width="2" stroke-linecap="round" stroke-linejoin="round"/>
</svg>
