<svg width="18" height="19" viewBox="0 0 18 19" fill="none" xmlns="http://www.w3.org/2000/svg">
<g clip-path="url(#clip0_93_1747)">
<path d="M6.27973 1.2402C6.23447 1.06618 6.12277 0.916855 5.96862 0.824297C5.81447 0.731739 5.63017 0.703331 5.4553 0.745175C5.31466 0.779061 5.18887 0.857818 5.09696 0.969538C5.00505 1.08126 4.95202 1.21986 4.94588 1.3644C3.19081 1.93772 2.15037 2.85036 1.56624 3.8962C1.01722 4.88084 0.914616 5.90958 0.900216 6.69801L0.443897 7.26774C0.269163 7.4861 0.141554 7.7383 0.0691128 8.00843C-0.00332849 8.27856 -0.0190319 8.56076 0.0229924 8.83726C0.0650167 9.11376 0.163857 9.37855 0.313286 9.61496C0.462715 9.85137 0.659491 10.0543 0.891215 10.2109L9.05184 15.729C10.2057 16.5092 11.5668 16.9262 12.9598 16.926H14.9471C15.3481 16.9263 15.7452 16.8475 16.1157 16.6941C16.4862 16.5408 16.8228 16.3159 17.1063 16.0324C17.3899 15.7488 17.6148 15.4122 17.7681 15.0417C17.9214 14.6712 18.0002 14.2741 18 13.8731C18 12.154 16.5599 10.9705 15.3143 10.3693C14.9408 10.1893 14.6321 9.95524 14.4269 9.65283L12.1021 5.65307C12.2543 5.61287 12.3874 5.52002 12.4777 5.39101C12.568 5.26199 12.6097 5.10516 12.5953 4.94834C12.5781 4.76931 12.4912 4.60422 12.3532 4.48884C12.2153 4.37345 12.0374 4.31704 11.8582 4.33182C9.20305 4.54243 6.81885 3.33818 6.27973 1.2402ZM10.5477 5.66657L13.2694 10.3504L13.291 10.3846C13.669 10.9543 14.2027 11.3332 14.7266 11.5861C15.4196 11.9191 15.9893 12.3673 16.3241 12.875H12.931C12.3479 12.875 11.7781 12.7007 11.2947 12.3745L9.62786 11.2495L10.0095 11.0299C10.371 10.8209 10.6348 10.477 10.7428 10.0736C10.8508 9.67022 10.7943 9.24046 10.5855 8.8788L9.97168 7.81496C9.76273 7.45341 9.41876 7.18963 9.01539 7.08161C8.61201 6.97359 8.18226 7.03018 7.82059 7.23893L5.5903 8.52599L4.50036 7.79066L4.60836 7.72765C4.96991 7.51871 5.23369 7.17474 5.34171 6.77136C5.44973 6.36799 5.39314 5.93823 5.18439 5.57657L3.89464 3.33998C4.28435 3.07897 4.77127 2.83956 5.3851 2.64065C6.35983 4.48032 8.41102 5.47666 10.5495 5.66657M3.25651 6.95092L2.26917 6.2849C2.31237 5.71067 2.43298 5.11305 2.74529 4.55503C2.79029 4.47342 2.84039 4.39212 2.8956 4.31112L4.01704 6.25159C4.03187 6.27723 4.04148 6.30554 4.04535 6.3349C4.04921 6.36426 4.04724 6.39409 4.03954 6.42269C4.03185 6.45129 4.01859 6.47809 4.00052 6.50155C3.98245 6.52501 3.95992 6.54467 3.93424 6.55941L3.25651 6.95092ZM8.38402 10.4098L6.83595 9.36572L8.49652 8.40808C8.5481 8.37835 8.60937 8.37027 8.6669 8.38563C8.72442 8.40098 8.77352 8.4385 8.80343 8.48998L9.41726 9.55383C9.44699 9.60541 9.45506 9.66668 9.43971 9.7242C9.42436 9.78173 9.38683 9.83083 9.33535 9.86074L8.38402 10.4098ZM1.49874 8.11107L1.87135 7.64485L10.5405 13.4933C11.2469 13.9701 12.0796 14.2249 12.9319 14.225H16.6139C16.5335 14.6074 16.3239 14.9504 16.0204 15.1964C15.7168 15.4425 15.3378 15.5765 14.9471 15.576H12.9598C11.8364 15.5763 10.7386 15.2403 9.80787 14.6111L1.64725 9.09211C1.56998 9.03993 1.50436 8.97232 1.45452 8.89353C1.40469 8.81474 1.37171 8.72648 1.35767 8.63431C1.34364 8.54214 1.34884 8.44807 1.37297 8.35801C1.39709 8.26796 1.44051 8.18388 1.49874 8.11107Z" fill="#999999"/>
</g>
<defs>
<clipPath id="clip0_93_1747">
<rect width="18" height="18" fill="white" transform="translate(0 0.726318)"/>
</clipPath>
</defs>
</svg>
