<svg width="18" height="19" viewBox="0 0 18 19" fill="none" xmlns="http://www.w3.org/2000/svg">
<path d="M16.8178 7.21074C16.7474 6.98924 16.6117 6.79419 16.4285 6.65115C16.2453 6.50811 16.0232 6.42377 15.7912 6.40918L11.6146 6.1209L10.0678 2.21855C9.9833 2.00368 9.83628 1.81911 9.64573 1.68874C9.45519 1.55837 9.22989 1.48819 8.99902 1.4873C8.76814 1.48819 8.54285 1.55837 8.3523 1.68874C8.16176 1.81911 8.01473 2.00368 7.93027 2.21855L6.35527 6.14199L2.20683 6.40918C1.97515 6.42472 1.75347 6.50941 1.57046 6.65232C1.38744 6.79522 1.25152 6.98975 1.18027 7.21074C1.1071 7.43513 1.10283 7.67628 1.16799 7.90312C1.23316 8.12995 1.36479 8.33207 1.54589 8.4834L4.73808 11.1834L3.78886 14.917C3.72319 15.1696 3.73501 15.4361 3.82278 15.6818C3.91056 15.9276 4.07023 16.1413 4.28105 16.2951C4.48568 16.442 4.72948 16.5245 4.98125 16.532C5.23302 16.5395 5.4813 16.4717 5.69433 16.3373L8.99199 14.249H9.00605L12.5568 16.492C12.739 16.6104 12.9513 16.6738 13.1686 16.6748C13.3459 16.6734 13.5206 16.6314 13.6792 16.5519C13.8377 16.4725 13.976 16.3577 14.0833 16.2165C14.1906 16.0752 14.264 15.9113 14.2981 15.7372C14.3321 15.5631 14.3257 15.3835 14.2795 15.2123L13.274 11.1271L16.4521 8.4834C16.6333 8.33207 16.7649 8.12995 16.83 7.90312C16.8952 7.67628 16.8909 7.43513 16.8178 7.21074Z" fill="#FFC700"/>
</svg>
