<svg width="19" height="18" viewBox="0 0 19 18" fill="none" xmlns="http://www.w3.org/2000/svg">
<path d="M17.7102 7.44833L17.7114 7.45188C17.7617 7.60622 17.7646 7.77209 17.7198 7.92812C17.675 8.08402 17.5846 8.22294 17.4602 8.327C17.4601 8.32709 17.46 8.32717 17.4599 8.32725L13.9295 11.264L13.689 11.4641L13.7637 11.7679L14.8809 16.307L14.8808 16.307L14.8837 16.3178C14.9151 16.4343 14.9195 16.5564 14.8963 16.6748C14.8732 16.7932 14.8232 16.9047 14.7503 17.0008C14.6773 17.0968 14.5833 17.1749 14.4754 17.2289C14.3685 17.2825 14.2508 17.3111 14.1312 17.3125C13.9869 17.3112 13.8459 17.2688 13.7248 17.1901L13.7248 17.1901L13.7194 17.1866L9.77408 14.6945L9.65174 14.6172H9.50705H9.49142H9.34642L9.22392 14.6948L5.56057 17.0146C5.56044 17.0147 5.56032 17.0148 5.5602 17.0149C5.40774 17.1109 5.2301 17.1594 5.04997 17.154C4.87034 17.1487 4.69639 17.09 4.5502 16.9856C4.39777 16.8739 4.2823 16.719 4.21873 16.541C4.15494 16.3624 4.14635 16.1688 4.19409 15.9852L4.19476 15.9826L5.24944 11.8341L5.32649 11.5311L5.08776 11.3292L1.54088 8.32918L1.54089 8.32917L1.53859 8.32725C1.41402 8.22316 1.32348 8.08414 1.27866 7.92812C1.23383 7.77209 1.23677 7.60622 1.2871 7.45188L1.28761 7.4503C1.33607 7.29999 1.42852 7.16769 1.55299 7.07049C1.6773 6.97343 1.82785 6.91585 1.98519 6.90517C1.9854 6.90516 1.98561 6.90514 1.98581 6.90513L6.59387 6.60834L6.90835 6.58809L7.02574 6.29564L8.77574 1.93627L8.77576 1.93627L8.77707 1.93292C8.8343 1.78735 8.93391 1.6623 9.063 1.57397C9.19157 1.486 9.34349 1.43849 9.49923 1.43751C9.65498 1.43849 9.8069 1.486 9.93547 1.57397C10.0646 1.6623 10.1642 1.78735 10.2214 1.93292L10.2219 1.93425L11.9407 6.27019L12.0568 6.56306L12.3711 6.58475L17.0117 6.90507L17.0147 6.90526C17.1719 6.91515 17.3224 6.97229 17.4465 7.0692C17.5706 7.16611 17.6625 7.29826 17.7102 7.44833Z" stroke="#FFC700"/>
</svg>
