<svg width="16" height="16" viewBox="0 0 16 16" fill="none" xmlns="http://www.w3.org/2000/svg">
<path d="M2.58335 2.79167C2.58335 2.5154 2.6931 2.25045 2.88845 2.0551C3.0838 1.85975 3.34875 1.75 3.62502 1.75C3.90129 1.75 4.16624 1.85975 4.36159 2.0551C4.55694 2.25045 4.66669 2.5154 4.66669 2.79167V8.03C5.06419 8.0675 5.48169 8.14083 5.91669 8.25833V7.16667H11.3334V10.0833C11.7551 10.0766 12.1746 10.0207 12.5834 9.91667V2.79167C12.5834 2.18388 12.3419 1.60098 11.9121 1.17121C11.4824 0.741443 10.8995 0.5 10.2917 0.5C9.6839 0.5 9.101 0.741443 8.67123 1.17121C8.24146 1.60098 8.00002 2.18388 8.00002 2.79167V3.20833C8.00002 3.37409 8.06587 3.53307 8.18308 3.65028C8.30029 3.76749 8.45926 3.83333 8.62502 3.83333C8.79078 3.83333 8.94975 3.76749 9.06696 3.65028C9.18417 3.53307 9.25002 3.37409 9.25002 3.20833V2.79167C9.25002 2.5154 9.35977 2.25045 9.55512 2.0551C9.75047 1.85975 10.0154 1.75 10.2917 1.75C10.568 1.75 10.8329 1.85975 11.0283 2.0551C11.2236 2.25045 11.3334 2.5154 11.3334 2.79167V5.91667H5.91669V2.79167C5.91669 2.18388 5.67524 1.60098 5.24547 1.17121C4.8157 0.741443 4.23281 0.5 3.62502 0.5C3.01723 0.5 2.43434 0.741443 2.00457 1.17121C1.5748 1.60098 1.33335 2.18388 1.33335 2.79167V3.20833C1.33335 3.37409 1.3992 3.53307 1.51641 3.65028C1.63362 3.76749 1.79259 3.83333 1.95835 3.83333C2.12411 3.83333 2.28309 3.76749 2.4003 3.65028C2.51751 3.53307 2.58335 3.37409 2.58335 3.20833V2.79167ZM1.56669 10.9383C1.44931 11.0528 1.29167 11.1165 1.12774 11.1158C0.963804 11.1152 0.806702 11.0501 0.690291 10.9347C0.57388 10.8192 0.507481 10.6627 0.505404 10.4988C0.503327 10.3348 0.565738 10.1767 0.679187 10.0583H0.680021V10.0575L0.682521 10.0558L0.685854 10.0517L0.695854 10.0425C0.738112 10.0001 0.782621 9.96008 0.829187 9.9225C0.948949 9.82364 1.07414 9.73155 1.20419 9.64667C1.63888 9.36579 2.11454 9.1541 2.61419 9.01917C3.86085 8.68083 5.61669 8.70583 7.78085 9.9425C9.70252 11.04 11.3917 11.0342 12.595 10.7692C13.0896 10.661 13.5693 10.4931 14.0234 10.2692C14.1898 10.1858 14.3514 10.0931 14.5075 9.99167L14.5084 9.99083L14.51 9.99C14.6445 9.89578 14.8107 9.85829 14.9726 9.88561C15.1345 9.91294 15.2792 10.0029 15.3753 10.136C15.4715 10.2692 15.5113 10.4348 15.4863 10.5971C15.4613 10.7594 15.3734 10.9053 15.2417 11.0033H15.2409L15.2392 11.005L15.235 11.0075L15.2234 11.0158C15.1687 11.0547 15.1126 11.0914 15.055 11.1258C14.9008 11.2207 14.7423 11.3083 14.58 11.3883C14.0343 11.6578 13.4579 11.8598 12.8634 11.99C11.4034 12.3117 9.39002 12.3008 7.16085 11.0275C5.27002 9.9475 3.85252 9.9775 2.94085 10.225C2.56764 10.3242 2.21242 10.4817 1.88835 10.6917C1.77841 10.7626 1.6742 10.842 1.57669 10.9292L1.56669 10.9383ZM0.686687 14.2758C0.804321 14.3916 0.962948 14.4561 1.12796 14.4553C1.29298 14.4545 1.45099 14.3885 1.56752 14.2717L1.57669 14.2633L1.63252 14.2133C1.68669 14.1683 1.77252 14.1017 1.88835 14.025C2.12169 13.8725 2.47502 13.685 2.94085 13.5583C3.85335 13.3117 5.27002 13.2808 7.16085 14.3608C9.39002 15.6342 11.4025 15.645 12.8642 15.3233C13.4587 15.1932 14.0352 14.9911 14.5809 14.7217C14.7893 14.6183 14.9913 14.5025 15.1859 14.375L15.2234 14.35L15.235 14.3417L15.2392 14.3383L15.2409 14.3375L15.2417 14.3367C15.3734 14.2386 15.4613 14.0927 15.4863 13.9304C15.5113 13.7681 15.4715 13.6025 15.3753 13.4694C15.2792 13.3362 15.1345 13.2463 14.9726 13.2189C14.8107 13.1916 14.6445 13.2291 14.51 13.3233H14.5084L14.5075 13.325L14.4892 13.3375L14.3992 13.3958C14.3159 13.4458 14.19 13.5192 14.0234 13.6025C13.69 13.7683 13.2017 13.9692 12.595 14.1025C11.3917 14.3683 9.70335 14.3733 7.78085 13.2758C5.61669 12.0392 3.86085 12.0142 2.61419 12.3525C2.00002 12.5192 1.52669 12.7683 1.20419 12.98C1.03639 13.0905 0.876804 13.2131 0.726687 13.3467L0.695854 13.3758L0.685854 13.385L0.682521 13.3892L0.680854 13.3908L0.679187 13.3917C0.563135 13.5098 0.498738 13.6693 0.500145 13.8349C0.501551 14.0005 0.568645 14.1596 0.686687 14.2758Z" fill="#999999"/>
</svg>
