<svg width="20" height="21" viewBox="0 0 20 21" fill="none" xmlns="http://www.w3.org/2000/svg">
<path d="M3.67063 13.665L7.44563 17.44C8.99563 18.99 11.5123 18.99 13.0706 17.44L16.729 13.7816C18.279 12.2316 18.279 9.71496 16.729 8.15662L12.9456 4.38996C12.154 3.59829 11.0623 3.17329 9.94563 3.23162L5.77896 3.43162C4.1123 3.50662 2.7873 4.83162 2.70396 6.48996L2.50396 10.6566C2.45396 11.7816 2.87896 12.8733 3.67063 13.665Z" stroke="black" stroke-width="1.5" stroke-linecap="round" stroke-linejoin="round"/>
<path d="M8.11239 10.915C9.26298 10.915 10.1957 9.98222 10.1957 8.83162C10.1957 7.68103 9.26298 6.74829 8.11239 6.74829C6.96179 6.74829 6.02905 7.68103 6.02905 8.83162C6.02905 9.98222 6.96179 10.915 8.11239 10.915Z" stroke="black" stroke-width="1.5" stroke-linecap="round"/>
<path d="M11.0291 15.0816L14.3624 11.7483" stroke="black" stroke-width="1.5" stroke-miterlimit="10" stroke-linecap="round" stroke-linejoin="round"/>
</svg>
