<svg width="18" height="16" viewBox="0 0 18 16" fill="none" xmlns="http://www.w3.org/2000/svg">
<path d="M1.10355 7.37861C1.10355 7.37861 9.06452 4.02559 11.8255 2.84491C12.8839 2.37268 16.4733 0.861396 16.4733 0.861396C16.4733 0.861396 18.1299 0.200269 17.9918 1.80593C17.9458 2.46712 17.5777 4.78117 17.2095 7.28417C16.6573 10.8261 16.0591 14.6987 16.0591 14.6987C16.0591 14.6987 15.9671 15.7849 15.1848 15.9738C14.4025 16.1627 13.114 15.3127 12.8839 15.1237C12.6998 14.9821 9.43264 12.8569 8.2362 11.8179C7.91406 11.5345 7.54595 10.9679 8.28218 10.3067C9.93883 8.74819 11.9175 6.81193 13.114 5.58406C13.6662 5.01732 14.2184 3.69499 11.9175 5.30066C8.65036 7.61476 5.42916 9.78717 5.42916 9.78717C5.42916 9.78717 4.69287 10.2594 3.31237 9.83436C1.93181 9.40938 0.321209 8.84264 0.321209 8.84264C0.321209 8.84264 -0.783137 8.13425 1.10355 7.37861Z" fill="white"/>
</svg>
