<svg width="20" height="16" viewBox="0 0 20 16" fill="none" xmlns="http://www.w3.org/2000/svg">
<path d="M18.9347 2.30052C18.3403 2.55657 17.7154 2.73486 17.0754 2.831C17.3746 2.77966 17.8149 2.24063 17.9901 2.02245C18.2564 1.69335 18.4593 1.31766 18.5885 0.91445C18.5885 0.884504 18.6184 0.841724 18.5885 0.820334C18.5734 0.812097 18.5565 0.80778 18.5394 0.80778C18.5222 0.80778 18.5053 0.812097 18.4902 0.820334C17.7953 1.19698 17.0557 1.48445 16.289 1.67594C16.2623 1.68411 16.2338 1.68484 16.2067 1.67806C16.1796 1.67127 16.1549 1.65723 16.1351 1.63743C16.0754 1.5663 16.0112 1.49914 15.9428 1.43637C15.6301 1.15592 15.2752 0.92639 14.8913 0.756164C14.3731 0.543366 13.8133 0.451208 13.2543 0.48665C12.7119 0.520937 12.1823 0.666556 11.6985 0.91445C11.2221 1.1758 10.8034 1.53086 10.4675 1.95828C10.1143 2.39821 9.85921 2.90876 9.71954 3.45559C9.60437 3.97573 9.59131 4.51332 9.68107 5.03845C9.68107 5.12829 9.68107 5.14112 9.60414 5.12829C6.55663 4.6791 4.05622 3.59676 2.01315 1.2738C1.92339 1.17113 1.87637 1.17113 1.80371 1.2738C0.914676 2.62565 1.34637 4.76466 2.45766 5.82132C2.60726 5.9625 2.76113 6.09939 2.92355 6.22773C2.41403 6.19153 1.91695 6.05333 1.46177 5.82132C1.37629 5.76571 1.32927 5.79566 1.325 5.89833C1.31288 6.04067 1.31288 6.18379 1.325 6.32613C1.41418 7.0083 1.68278 7.65452 2.10333 8.19871C2.52388 8.74291 3.08129 9.16554 3.71856 9.4234C3.8739 9.49 4.03578 9.54019 4.20154 9.57313C3.72985 9.66608 3.24607 9.68054 2.76968 9.61592C2.6671 9.59453 2.62863 9.65014 2.6671 9.74853C3.29541 11.4597 4.65888 11.9817 5.65905 12.2726C5.79582 12.2939 5.93259 12.2939 6.08647 12.3282C6.08647 12.3282 6.08647 12.3282 6.06082 12.3538C5.7659 12.8929 4.5734 13.2565 4.0263 13.4447C3.0277 13.8037 1.96302 13.941 0.906128 13.8469C0.739434 13.8212 0.700966 13.8255 0.658224 13.8469C0.615482 13.8683 0.658224 13.9153 0.70524 13.9581C0.91895 14.0993 1.13266 14.2233 1.35492 14.3431C2.01659 14.7043 2.7161 14.9913 3.44073 15.1987C7.19349 16.234 11.4164 15.4725 14.2331 12.6704C16.4471 10.4715 17.225 7.43841 17.225 4.40103C17.225 4.28552 17.3661 4.21707 17.4473 4.15718C18.0074 3.72035 18.5013 3.20446 18.9134 2.62565C18.9847 2.53937 19.0213 2.42952 19.0159 2.31764V2.31764C19.0159 2.25347 19.0159 2.2663 18.9347 2.30052Z" fill="black"/>
</svg>
