<svg width="22" height="13" viewBox="0 0 22 13" fill="none" xmlns="http://www.w3.org/2000/svg">
<path fill-rule="evenodd" clip-rule="evenodd" d="M21.5044 0.816564C21.6565 0.340663 21.5044 -0.0090332 20.7803 -0.0090332H18.386C17.7773 -0.0090332 17.4966 0.293052 17.3444 0.626165C17.3444 0.626165 16.1268 3.41016 14.402 5.21855C13.8439 5.74202 13.5902 5.90857 13.2858 5.90857C13.1337 5.90857 12.9134 5.74202 12.9134 5.26615V0.816567C12.9134 0.245483 12.7367 -0.0090332 12.2293 -0.0090332H8.46688C8.08644 -0.0090332 7.85764 0.25602 7.85764 0.50722C7.85764 1.04859 8.72002 1.17344 8.80892 2.69633V6.00379C8.80892 6.72894 8.66931 6.86042 8.36492 6.86042C7.55325 6.86042 5.57885 4.06398 4.40785 0.864135C4.17836 0.242197 3.94819 -0.0090332 3.33628 -0.0090332H0.941997C0.257917 -0.0090332 0.121094 0.293052 0.121094 0.626165C0.121094 1.22105 0.932808 4.1716 3.90057 8.07392C5.87906 10.7389 8.66663 12.1835 11.2032 12.1835C12.7251 12.1835 12.9134 11.8626 12.9134 11.31V9.29579C12.9134 8.65408 13.0576 8.52601 13.5395 8.52601C13.8946 8.52601 14.5034 8.69257 15.9239 9.97748C17.5473 11.5003 17.8149 12.1835 18.7281 12.1835H21.1224C21.8064 12.1835 22.1485 11.8626 21.9512 11.2295C21.7352 10.5984 20.9602 9.68277 19.9317 8.59739C19.3736 7.97874 18.5366 7.31251 18.2829 6.97932C17.9278 6.55107 18.0293 6.36067 18.2829 5.97999C18.2829 5.97999 21.2 2.12524 21.5044 0.816564Z" fill="black"/>
</svg>
