<svg width="20" height="21" viewBox="0 0 20 21" fill="none" xmlns="http://www.w3.org/2000/svg">
<path d="M0 20.7605L1.43611 15.4207C0.277924 13.3406 -0.0900445 10.9132 0.399731 8.58412C0.889507 6.25499 2.20417 4.18032 4.10249 2.74079C6.0008 1.30127 8.35543 0.593458 10.7343 0.747242C13.1132 0.901027 15.3567 1.90609 17.0532 3.57801C18.7497 5.24992 19.7854 7.47654 19.9702 9.84927C20.155 12.222 19.4765 14.5817 18.0593 16.4953C16.6421 18.409 14.5811 19.7482 12.2547 20.2672C9.92822 20.7863 7.4923 20.4504 5.39391 19.3211L0 20.7605ZM5.65399 17.3229L5.98758 17.5205C7.50748 18.4199 9.28272 18.7921 11.0366 18.5791C12.7905 18.366 14.4246 17.5798 15.6842 16.3428C16.9437 15.1058 17.7581 13.4876 18.0002 11.7403C18.2424 9.99306 17.8988 8.2149 17.0231 6.68293C16.1473 5.15096 14.7885 3.95124 13.1584 3.27074C11.5284 2.59024 9.7186 2.46717 8.01116 2.92073C6.30373 3.37428 4.79454 4.37897 3.71877 5.77823C2.643 7.1775 2.06108 8.89273 2.06371 10.6566C2.06228 12.1192 2.46744 13.5535 3.23408 14.7998L3.44328 15.1441L2.64041 18.1245L5.65399 17.3229Z" fill="white"/>
<path fill-rule="evenodd" clip-rule="evenodd" d="M13.7504 12.0279C13.5548 11.8704 13.3258 11.7596 13.0809 11.7038C12.8359 11.6481 12.5815 11.6488 12.3369 11.7061C11.9694 11.8585 11.7319 12.4343 11.4944 12.7222C11.4443 12.7912 11.3708 12.8396 11.2875 12.8583C11.2042 12.877 11.117 12.8647 11.0421 12.8238C9.69664 12.2977 8.56886 11.3329 7.84194 10.0861C7.77994 10.0083 7.7506 9.90954 7.76009 9.81057C7.76958 9.7116 7.81717 9.62017 7.89283 9.55553C8.15769 9.29376 8.35215 8.96955 8.45823 8.61287C8.48179 8.21945 8.3915 7.82757 8.19815 7.48395C8.04867 7.00221 7.76419 6.57326 7.37832 6.24778C7.1793 6.15842 6.95863 6.12845 6.74293 6.16151C6.52723 6.19456 6.32572 6.28921 6.16271 6.43405C5.87971 6.67781 5.65508 6.98184 5.50537 7.32375C5.35566 7.66566 5.28468 8.03674 5.29765 8.40967C5.29852 8.61909 5.32511 8.82761 5.3768 9.03058C5.50809 9.51822 5.71 9.98411 5.97613 10.4135C6.16813 10.7424 6.37763 11.0609 6.60372 11.3674C7.33848 12.3744 8.2621 13.2294 9.32329 13.885C9.85581 14.2181 10.425 14.4889 11.0195 14.6921C11.6371 14.9716 12.319 15.0789 12.9927 15.0026C13.3766 14.9446 13.7403 14.7933 14.0519 14.562C14.3634 14.3306 14.6133 14.0264 14.7794 13.6761C14.877 13.4645 14.9066 13.2279 14.8642 12.9987C14.7624 12.5302 14.1348 12.2537 13.7504 12.0279Z" fill="white"/>
</svg>
