<svg width="32" height="33" viewBox="0 0 32 33" fill="none" xmlns="http://www.w3.org/2000/svg">
<path fill-rule="evenodd" clip-rule="evenodd" d="M25 13.2266L24.0942 4.62188C24.0407 4.11293 23.6115 3.72656 23.0997 3.72656H8.90026C8.3885 3.72656 7.95933 4.11293 7.90576 4.62188L7 13.2266V13.7266C7 17.7911 9.69433 21.2263 13.3944 22.3436C14.0848 22.5521 14.5724 23.1019 14.933 23.7266C15.388 24.5146 15.3501 25.4704 15.0929 26.3525C14.833 27.2436 13.9282 27.7266 13 27.7266C12.4477 27.7266 12 28.1743 12 28.7266C12 29.2788 12.4477 29.7266 13 29.7266H19C19.5523 29.7266 20 29.2788 20 28.7266C20 28.1743 19.5523 27.7266 19 27.7266C18.0303 27.7266 17.0818 27.2222 16.8218 26.2881C16.5813 25.424 16.5561 24.4955 17 23.7266C17.3676 23.0898 17.9244 22.5513 18.6277 22.3369C22.3164 21.2126 25 17.783 25 13.7266V13.2266ZM9.80052 5.72656L9.52807 8.31486C9.88046 8.16628 10.31 8.01764 10.8052 7.90692C12.2705 7.57927 14.2812 7.59265 16.4961 8.85832C17.627 9.50453 18.6574 9.72073 19.529 9.72656H19.6018C20.029 9.7237 20.4169 9.67076 20.7584 9.59441C21.292 9.47509 21.7198 9.29624 22.0098 9.15004C22.1542 9.07722 22.2626 9.0134 22.3308 8.97078C22.3649 8.94951 22.3887 8.93365 22.4018 8.92474L22.4126 8.9173C22.4497 8.89039 22.4884 8.86608 22.5277 8.84497L22.1995 5.72656H9.80052Z" fill="black"/>
</svg>
